<svg xmlns="http://www.w3.org/2000/svg" viewBox="0 0 52.76 52.76"><defs><style>.cls-1{fill:#2a5c68;}</style></defs><title>Asset 5</title><g id="Layer_2" data-name="Layer 2"><g id="Layer_1-2" data-name="Layer 1"><g id="Layer_1-3" data-name="Layer 1"><path class="cls-1" d="M39.81,7.75l-14.8,4L16,2.73A9.35,9.35,0,0,0,2.73,16L11.79,25l-4,14.8a8,8,0,0,0,14.73,6l3.61-6.49,1.58,1.58-.33,3A8,8,0,0,0,42.9,47.28a9.94,9.94,0,0,1,4.38-4.38,8,8,0,0,0-3.42-15.56l-3,.33-1.58-1.58,6.5-3.61a8,8,0,0,0-6-14.73Zm4.58,6.72a2.67,2.67,0,0,1-1.18,3.34L30.53,24.86l8.4,8.41,5.52-.62a2.67,2.67,0,0,1,1.14,5.19,14.78,14.78,0,0,0-7.75,7.75,2.67,2.67,0,0,1-5.19-1.14l.62-5.52-8.41-8.4-7,12.68a2.66,2.66,0,0,1-4.9-2l4.85-17.79L6.51,12.17a4,4,0,0,1,5.66-5.66L23.42,17.76,41.21,12.9A2.68,2.68,0,0,1,44.39,14.47Z"/><circle class="cls-1" cx="8.87" cy="8.87" r="1.34"/></g></g></g></svg>