<svg xmlns="http://www.w3.org/2000/svg" viewBox="0 0 941.6 358"><defs><style>.cls-1,.cls-2{fill:#bfa680;}.cls-2,.cls-3{fill-rule:evenodd;}.cls-3,.cls-4{fill:#6d4f1b;}.cls-5{fill:none;}</style></defs><title>Asset 5</title><g id="Layer_2" data-name="Layer 2"><g id="Layer_1-2" data-name="Layer 1"><rect class="cls-1" x="563" y="177.69" width="75.95" height="152.4"/><rect class="cls-1" x="658.78" y="39.05" width="44.04" height="291.04"/><rect class="cls-1" x="837.65" y="119.69" width="66.69" height="212.8"/><path class="cls-2" d="M307.3,193.81c0-63.22,65.44-62.75,65.44,0V330.09H307.3Z"/><path class="cls-1" d="M784.52,91.15V73.1c0-9.8-4.28-15.49-9.25-17.12V19.64c0-23.48-6-23.65-6,0V56c-5,1.6-9.25,7.26-9.25,17.14v18c-19,4.06-35.09,18-35.09,42V335.25h94.9V133C819.85,109.41,803.58,95.38,784.52,91.15Z"/><rect class="cls-1" x="67.18" y="215.23" width="71.23" height="114.86"/><rect class="cls-1" x="67.18" y="272.66" width="139.92" height="57.43"/><path class="cls-3" d="M662,323h14V166.65h2.61v-49L672,114.26V99.93a86.27,86.27,0,0,1-10-15.62v34.45c4.07,1.14,7.68,6.73,8.42,13.46.84,7.55-2.25,13.68-6.91,13.68a5.57,5.57,0,0,1-1.51-.22V323Zm0-188.78V130l.32,1.15,6.14-4.22-5.83,5.44.81,3-1.26.08ZM621.18,323H662V145.68c-4.07-1.14-7.68-6.73-8.43-13.46-.84-7.55,2.26-13.67,6.91-13.67a5.63,5.63,0,0,1,1.52.21V84.31c-1.15-2.14-2.59-4.77-4.77-8.45V59.67c8.36,1.16-1.77-8.27-6.45-15.26S641.6,21,641.73,10V9.73a7.69,7.69,0,0,0-1-4.29,3.27,3.27,0,0,0,1-2.55c0-1.6-.88-2.89-2-2.89s-2,1.29-2,2.89a3.27,3.27,0,0,0,1,2.55,7.69,7.69,0,0,0-1,4.29c0,.14,0,.27,0,.4C638,20.82,635.46,28.4,629.06,43c-3.48,7.94-6.82,12.49-7.88,14.81v1.83c.54.32,1.72.29,3.74,0V75.86c-1.58,2.67-2.77,4.78-3.74,6.55V119a11,11,0,0,1,1.41-.1c6.55,0,11.23,6.29,10.46,14-.72,7.21-5.89,13.14-11.87,14V323ZM662,130v4.24l-.18-1.13-1.73,1.64-.85-1.39,2.31-1.62-1.3-8L662,130Zm-40.83,6.13v-11.5l.56,7.34,8.67-3.69-8.61,4.9.19,3ZM606.14,323h15V146.91a10.85,10.85,0,0,1-1.4.1c-6.56,0-11.24-6.29-10.46-14.06.72-7.2,5.89-13.13,11.86-13.95V82.41c-3.7,6.77-4.21,8.62-11,17.52v15.43l-6.66,2.33v49h2.61V323Zm15-265.21c-.43,1-.48,1.54,0,1.83V57.83Zm0,66.91v11.41h-.75l.18-2.29-2.56,1.49-.67-1.41,3.27-1.42Z"/><polygon class="cls-3" points="369.72 324.62 385.33 324.62 385.33 115.27 389.86 115.27 389.86 95.63 382.31 95.63 382.31 79.01 385.83 79.01 385.83 69.45 381.8 69.45 381.8 60.38 373.24 60.38 373.24 69.45 369.21 69.45 369.21 79.01 372.74 79.01 372.74 95.63 365.19 95.63 365.19 115.27 369.72 115.27 369.72 324.62"/><path class="cls-3" d="M766,322.11h55.55V87.65h-1.44V70.1H818L815.8,53.15,813.64,70.1h-2.17V87.65H810v15.14h-.94a15.2,15.2,0,0,0-3.17-9.32,12.34,12.34,0,0,0-10.18-14.56L793.8,63.65l-1.95,15.26a12.34,12.34,0,0,0-10.18,14.56,15.2,15.2,0,0,0-3.17,9.32h-.94V87.65h-1.44V70.1H774l-2.17-16.95L769.63,70.1h-2.17V87.65H766V322.11Z"/><rect class="cls-4" y="306.93" width="941.6" height="51.07"/><path class="cls-3" d="M697.34,314.45h52.18V203.91c0-126.3-52.18-131.35-52.18,0Z"/><polygon class="cls-5" points="397.58 285.83 396.33 292.7 401.53 292.7 401.53 295.43 403.89 295.43 403.89 292.7 409.09 292.7 407.84 285.83 397.58 285.83"/><polygon class="cls-5" points="476.79 298.65 475.53 305.52 480.73 305.52 480.73 308.25 483.09 308.25 483.09 305.52 488.3 305.52 487.04 298.65 476.79 298.65"/><path class="cls-5" d="M466.31,233.88a21.31,21.31,0,0,1-3.92,2l5,15.11,13.17,40.06.45-.15c1.42-.5,2.83-1.05,4.22-1.62l.85-.35c1.55-.67,3.06-1.38,4.56-2.14l.46-.22c1.69-.88,3.36-1.81,5-2.81s2.91-1.94,4.35-2.95l-4.28-5.88Z"/><polygon class="cls-5" points="449.61 302.62 448.35 309.49 453.56 309.49 453.56 312.22 455.92 312.22 455.92 309.49 461.12 309.49 459.86 302.62 449.61 302.62"/><path class="cls-5" d="M460.32,236.56a20.83,20.83,0,0,1-4.5.72v58.08c.87,0,1.73-.06,2.59-.1s1.95-.06,2.9-.14c1.91-.16,3.8-.38,5.68-.68.75-.12,1.49-.28,2.23-.41,1.13-.21,2.25-.42,3.37-.68.54-.12,1.08-.28,1.62-.41,1.3-.33,2.59-.68,3.87-1.07l.39-.13L467.36,258Z"/><polygon class="cls-5" points="422.32 298.65 421.06 305.52 426.26 305.52 426.26 308.25 428.63 308.25 428.63 305.52 433.83 305.52 432.57 298.65 422.32 298.65"/><path class="cls-5" d="M441.4,232.61a21.33,21.33,0,0,1-3.12-3.11L422,241.39,391.43,263.8l.59.78c.5.65,1,1.27,1.52,1.9s1,1.27,1.59,1.88.87,1,1.31,1.45c.64.7,1.29,1.39,2,2.07l.82.8q1.56,1.54,3.2,3l1,.83c1.07.91,2.16,1.79,3.28,2.64l.61.46,24.06-33.12Z"/><path class="cls-5" d="M434.26,221.61a20.79,20.79,0,0,1-.69-4.34l-11.53,0-46.54.16a79.58,79.58,0,0,0,.8,10.19c.06.44.14.88.22,1.32.21,1.3.46,2.58.73,3.86.14.62.27,1.24.41,1.85.28,1.15.59,2.27.92,3.4.14.49.27,1,.42,1.48l52.33-17Z"/><path class="cls-5" d="M433.56,215.09a20.91,20.91,0,0,1,.7-4.5l-2.93-1-52.31-17c-.46,1.48-.87,3-1.24,4.44-.06.25-.14.49-.2.74-.31,1.29-.53,2.59-.77,3.88-.14.72-.3,1.42-.41,2.15s-.16,1.31-.25,2c-.17,1.37-.36,2.74-.47,4.14,0,.19,0,.38,0,.58-.11,1.57-.17,3.16-.18,4.76l46.56-.17Z"/><path class="cls-5" d="M449.3,236.6,442.11,259l-10.57,32.93a80.59,80.59,0,0,0,8.59,2.07c.68.13,1.36.29,2.05.4,1.91.31,3.83.53,5.74.7,1.51.13,3,.18,4.58.23l1.15.05v-58.1A21.45,21.45,0,0,1,449.3,236.6Z"/><path class="cls-5" d="M437,227.74a20.38,20.38,0,0,1-2.06-4.06l-3.6,1.17-51.64,16.78c.22.63.43,1.27.66,1.9l.38,1c.42,1.08.86,2.15,1.32,3.22l.42,1c.47,1,1,2,1.46,3,.17.33.34.67.51,1q1.08,2.07,2.28,4.08l.39.65c.94,1.54,1.92,3,3,4.51a.18.18,0,0,1,.05.07L422,238.69Z"/><polygon class="cls-5" points="376.21 264.76 374.95 271.63 380.15 271.63 380.15 274.36 382.52 274.36 382.52 271.63 387.72 271.63 386.46 264.76 376.21 264.76"/><path class="cls-5" d="M447.23,235.94a20.74,20.74,0,0,1-4.07-2.06l-11.83,16.29L409,280.89c1.56,1.1,3.16,2.13,4.8,3.11.48.3,1,.57,1.48.85q1.65,1,3.36,1.83c.74.38,1.49.74,2.24,1.1s1.41.63,2.12.94q2.73,1.2,5.6,2.2l.87.31,12.63-39.35Z"/><polygon class="cls-5" points="362.47 238.5 361.21 245.37 366.41 245.37 366.41 248.1 368.77 248.1 368.77 245.37 373.98 245.37 372.72 238.5 362.47 238.5"/><polygon class="cls-5" points="506.69 147.03 509.05 147.03 509.05 144.3 514.25 144.3 512.99 137.43 502.74 137.43 501.49 144.3 506.69 144.3 506.69 147.03"/><polygon class="cls-5" points="526.84 167.49 529.2 167.49 529.2 164.76 534.4 164.76 533.15 157.89 522.89 157.89 521.64 164.76 526.84 164.76 526.84 167.49"/><polygon class="cls-5" points="482.26 134.51 484.62 134.51 484.62 131.78 489.82 131.78 488.56 124.91 478.31 124.91 477.06 131.78 482.26 131.78 482.26 134.51"/><path class="cls-5" d="M434.93,208.52a21.6,21.6,0,0,1,2-3.93L422,193.87l-32.25-23.26c-.3.44-.58.88-.87,1.32-.64,1-1.28,1.92-1.88,2.91-.34.54-.65,1.1-1,1.66-.64,1.12-1.27,2.26-1.86,3.42-.21.41-.42.81-.62,1.22a80.14,80.14,0,0,0-3.87,9.44l51.62,16.77Z"/><polygon class="cls-5" points="453.56 130.23 455.92 130.23 455.92 127.5 461.12 127.5 459.86 120.63 449.61 120.63 448.35 127.5 453.56 127.5 453.56 130.23"/><polygon class="cls-5" points="539.66 191 542.03 191 542.03 188.27 547.23 188.27 545.97 181.4 535.72 181.4 534.46 188.27 539.66 188.27 539.66 191"/><polygon class="cls-5" points="424.74 134.51 427.1 134.51 427.1 131.78 432.3 131.78 431.04 124.91 420.79 124.91 419.53 131.78 424.74 131.78 424.74 134.51"/><polygon class="cls-5" points="364.81 221.23 364.81 218.5 370.01 218.5 368.75 211.63 358.5 211.63 357.24 218.5 362.44 218.5 362.44 221.23 364.81 221.23"/><polygon class="cls-5" points="367.33 191 369.69 191 369.69 188.27 374.89 188.27 373.64 181.4 363.38 181.4 362.13 188.27 367.33 188.27 367.33 191"/><polygon class="cls-5" points="380.15 167.49 382.52 167.49 382.52 164.76 387.72 164.76 386.46 157.89 376.21 157.89 374.95 164.76 380.15 164.76 380.15 167.49"/><polygon class="cls-5" points="400.31 147.03 402.67 147.03 402.67 144.3 407.87 144.3 406.62 137.43 396.37 137.43 395.11 144.3 400.31 144.3 400.31 147.03"/><path class="cls-5" d="M475.91,217.11a20.81,20.81,0,0,1-.69,4.5l20.92,6.8,34.31,11.15c.46-1.47.87-2.95,1.24-4.43.06-.25.14-.5.2-.75.31-1.28.53-2.57.77-3.86.14-.72.3-1.44.42-2.17s.15-1.29.24-1.93c.18-1.39.36-2.77.47-4.18,0-.17,0-.33,0-.5.12-1.6.17-3.21.19-4.84l-37.93.14Z"/><polygon class="cls-5" points="536.64 238.5 535.38 245.37 540.58 245.37 540.58 248.1 542.94 248.1 542.94 245.37 548.15 245.37 546.89 238.5 536.64 238.5"/><path class="cls-5" d="M502.78,279.15c1.59-1.2,3.13-2.49,4.63-3.82.64-.57,1.26-1.17,1.89-1.76,1.18-1.11,2.33-2.26,3.43-3.44.37-.4.75-.77,1.11-1.17,1.36-1.52,2.65-3.12,3.9-4.75l.65-.87-22.32-16.1-24.78-17.86a21.38,21.38,0,0,1-3.22,3.23l28.07,38.63,6.08,8.36,0,0C502.43,279.45,502.6,279.29,502.78,279.15Z"/><path class="cls-5" d="M474.55,223.68a21.32,21.32,0,0,1-2,3.93l23.51,16.95,23.61,17c.31-.44.59-.89.89-1.34.63-.94,1.26-1.9,1.86-2.88.34-.55.66-1.11,1-1.67.65-1.12,1.27-2.26,1.86-3.41l.63-1.23a80.45,80.45,0,0,0,3.87-9.44L496.14,230.7Z"/><polygon class="cls-5" points="522.89 264.76 521.64 271.63 526.84 271.63 526.84 274.36 529.2 274.36 529.2 271.63 534.4 271.63 533.15 264.76 522.89 264.76"/><polygon class="cls-5" points="540.61 211.63 539.35 218.5 544.55 218.5 544.55 221.23 546.91 221.23 546.91 218.5 552.12 218.5 550.86 211.63 540.61 211.63"/><path class="cls-5" d="M438.18,202.83a21.44,21.44,0,0,1,3.22-3.24l-10.07-13.85L407.26,152.6l-.09.06c-1.44,1.08-2.83,2.21-4.19,3.38l-.53.47c-1.18,1-2.34,2.12-3.46,3.23l-.75.75c-.8.81-1.59,1.64-2.35,2.49l-.69.77c-.76.87-1.51,1.75-2.23,2.65-.24.29-.46.58-.69.88-.41.52-.8,1.05-1.2,1.59l31,22.32Z"/><path class="cls-5" d="M454.74,115.36h0a100.75,100.75,0,0,0,0,201.49h0a100.75,100.75,0,0,0,0-201.49Zm86.11,63.33a7.29,7.29,0,0,1,5.67,2.71l1.25,6.87a7.29,7.29,0,0,1-13.85,0l1.25-6.87A7.29,7.29,0,0,1,540.85,178.69Zm-18.5-20.8a7.29,7.29,0,0,1,11.34,0l1.26,6.87a7.3,7.3,0,0,1-13.86,0ZM502.2,137.43a7.29,7.29,0,0,1,11.34,0l1.26,6.87a7.3,7.3,0,0,1-13.86,0Zm-24.43-12.52a7.29,7.29,0,0,1,11.34,0l1.26,6.87a7.3,7.3,0,0,1-13.86,0Zm-28.7-4.28a7.3,7.3,0,0,1,11.34,0l1.26,6.87a7.3,7.3,0,0,1-13.86,0Zm-28.82,4.28a7.29,7.29,0,0,1,11.34,0l1.26,6.87a7.3,7.3,0,0,1-13.86,0Zm-24.43,12.52a7.29,7.29,0,0,1,11.34,0l1.26,6.87a7.3,7.3,0,0,1-13.86,0Zm-20.15,20.46a7.29,7.29,0,0,1,11.34,0l1.25,6.87a7.29,7.29,0,0,1-13.85,0ZM362.84,181.4a7.29,7.29,0,0,1,11.34,0l1.26,6.87a7.3,7.3,0,0,1-13.86,0Zm-6.14,37.1,1.25-6.87a7.3,7.3,0,0,1,11.35,0l1.25,6.87a7.29,7.29,0,0,1-13.85,0Zm10.89,31.88a7.28,7.28,0,0,1-6.92-5l1.25-6.87a7.3,7.3,0,0,1,11.35,0l1.25,6.87A7.29,7.29,0,0,1,367.59,250.38Zm13.75,26.26a7.3,7.3,0,0,1-6.93-5l1.26-6.87a7.29,7.29,0,0,1,11.34,0l1.25,6.87A7.28,7.28,0,0,1,381.34,276.64Zm21.37,21.07a7.3,7.3,0,0,1-6.93-5l1.26-6.87a7.29,7.29,0,0,1,11.34,0l1.26,6.87A7.3,7.3,0,0,1,402.71,297.71Zm24.73,12.82a7.3,7.3,0,0,1-6.93-5l1.26-6.88a7.3,7.3,0,0,1,11.35,0l1.25,6.88A7.3,7.3,0,0,1,427.44,310.53Zm27.3,4a7.29,7.29,0,0,1-6.93-5l1.26-6.87a7.3,7.3,0,0,1,11.34,0l1.26,6.87A7.3,7.3,0,0,1,454.74,314.5Zm27.17-4a7.3,7.3,0,0,1-6.93-5l1.26-6.88a7.29,7.29,0,0,1,11.34,0l1.26,6.88A7.3,7.3,0,0,1,481.91,310.53ZM486,290.91l-.15.06q-2.69,1.11-5.48,2l-1.24.39c-1.48.46-3,.89-4.5,1.28l-1.79.43c-1.32.3-2.65.56-4,.8-.49.09-1,.22-1.48.29l-.75.09c-1.13.17-2.29.29-3.44.41-.9.09-1.8.21-2.71.28-.75,0-1.51,0-2.26.08-1.24.05-2.49.14-3.74.14a81.36,81.36,0,0,1-9.19-.62c-.95-.11-1.9-.2-2.84-.34l-.32,0c-.55-.09-1.1-.23-1.64-.33-1.41-.25-2.81-.5-4.19-.83l-1.17-.3c-1.27-.32-2.54-.62-3.78-1-.39-.12-.77-.27-1.15-.39l-.22-.06-.28-.11a80.17,80.17,0,0,1-13.42-5.74c-.5-.27-1-.55-1.48-.83-1.35-.76-2.67-1.57-4-2.4-.55-.36-1.1-.69-1.63-1.06q-2.35-1.59-4.59-3.35c-.62-.5-1.22-1-1.84-1.53-.94-.8-1.88-1.6-2.79-2.44-.63-.58-1.25-1.16-1.86-1.76-.23-.22-.47-.42-.69-.65s-.67-.75-1-1.11c-1.19-1.23-2.34-2.48-3.44-3.78-.58-.68-1.14-1.38-1.7-2.09q-1.41-1.77-2.71-3.62c-.6-.85-1.19-1.69-1.75-2.56-.75-1.15-1.44-2.32-2.13-3.5-.57-1-1.14-1.95-1.67-2.95-.12-.22-.26-.43-.37-.65-.35-.69-.63-1.42-1-2.11-.7-1.46-1.4-2.91-2-4.41-.38-.94-.7-1.9-1-2.86-.54-1.48-1.09-2.95-1.55-4.47-.35-1.19-.62-2.4-.92-3.6s-.68-2.6-.94-3.93c-.34-1.68-.55-3.4-.78-5.11-.12-.88-.28-1.74-.37-2.63-.23-2.33-.33-4.68-.35-7.05,0-.3,0-.59,0-.9,0,0,0-.06,0-.1,0-2.36.14-4.73.35-7.11,0-.39,0-.79.07-1.17.15-1.41.42-2.82.65-4.23s.37-2.71.65-4c.09-.43.23-.86.33-1.29.51-2.28,1.09-4.54,1.79-6.74l0-.1c.1-.31.23-.59.34-.9.74-2.22,1.54-4.41,2.47-6.54.35-.83.78-1.61,1.16-2.43.74-1.55,1.47-3.1,2.3-4.6.65-1.19,1.38-2.31,2.09-3.45s1.28-2.12,2-3.15c.9-1.31,1.88-2.55,2.84-3.79.62-.8,1.22-1.62,1.86-2.39,1.05-1.25,2.17-2.43,3.28-3.61.53-.55,1-1.16,1.55-1.7l.64-.61c.51-.49,1-1,1.54-1.44,1.45-1.35,2.93-2.65,4.48-3.89.22-.17.43-.36.65-.54,1.82-1.43,3.73-2.76,5.67-4l1.06-.68a80.47,80.47,0,0,1,19.88-9.12l.48-.13c.74-.22,1.49-.39,2.24-.59,1.33-.35,2.65-.68,4-1s2.7-.57,4.06-.78l.4-.05c.72-.11,1.46-.17,2.18-.26a79.38,79.38,0,0,1,9.77-.69c1.36,0,2.73.09,4.1.15.62,0,1.25,0,1.87.07.84.06,1.67.18,2.51.26,1.26.13,2.51.26,3.75.44.23,0,.45.05.67.08.47.08.93.2,1.39.28,1.35.23,2.69.49,4,.79l1.51.37c1.54.38,3.05.81,4.56,1.27l.67.19c.23.07.44.16.67.24,1,.33,2,.68,3,1l1.78.7c.88.35,1.76.71,2.63,1.09s1.59.74,2.38,1.12c.63.31,1.28.6,1.9.92q2.16,1.11,4.23,2.32c.51.3,1,.65,1.49,1,1,.62,2,1.23,2.95,1.89s1.76,1.27,2.63,1.92c.55.41,1.11.81,1.65,1.23.87.68,1.71,1.4,2.54,2.11.52.44,1,.88,1.55,1.34.79.71,1.56,1.44,2.32,2.18.29.28.59.53.87.81s.3.35.46.51c1.55,1.58,3.05,3.21,4.46,4.91.13.15.26.29.38.44,1.48,1.79,2.85,3.65,4.16,5.56.41.59.78,1.19,1.17,1.79q1.32,2,2.51,4.13c.42.73.84,1.46,1.23,2.2.13.24.28.48.4.72.36.69.63,1.41,1,2.11.7,1.46,1.4,2.91,2,4.41.38.94.7,1.91,1.05,2.86.54,1.48,1.08,3,1.54,4.47.35,1.19.62,2.41.93,3.61s.67,2.59.93,3.92c.34,1.69.56,3.41.79,5.13.11.87.28,1.73.36,2.61.23,2.35.33,4.71.36,7.08,0,.29,0,.58,0,.87v.1c0,2.37-.15,4.75-.36,7.14,0,.38,0,.77-.07,1.15-.15,1.41-.42,2.83-.65,4.25s-.37,2.69-.64,4c-.1.45-.24.89-.35,1.34-.51,2.26-1.08,4.5-1.77,6.68a.53.53,0,0,0,0,.12c-.18.55-.42,1.06-.6,1.6-.64,1.86-1.29,3.72-2.06,5.51-.55,1.28-1.19,2.49-1.8,3.73-.5,1-.94,2.07-1.48,3.07-1.24,2.29-2.59,4.5-4,6.63l-.1.14c-1.4,2.08-2.9,4.07-4.48,6-.25.31-.54.6-.81.91-1.36,1.61-2.75,3.17-4.23,4.66-.1.1-.18.21-.28.31-1.29,1.29-2.62,2.52-4,3.71-.43.38-.88.73-1.31,1.1-1.27,1.06-2.58,2.09-3.91,3.07-.46.34-.91.68-1.38,1-1.74,1.23-3.51,2.41-5.34,3.5A80.72,80.72,0,0,1,486,290.91Zm20.65,6.8a7.3,7.3,0,0,1-6.93-5l1.25-6.87a7.3,7.3,0,0,1,11.35,0l1.25,6.87A7.28,7.28,0,0,1,506.65,297.71ZM528,276.64a7.3,7.3,0,0,1-6.93-5l1.26-6.87a7.29,7.29,0,0,1,11.34,0l1.26,6.87A7.3,7.3,0,0,1,528,276.64Zm13.74-26.26a7.3,7.3,0,0,1-6.93-5l1.26-6.87h0a7.29,7.29,0,0,1,11.34,0l1.26,6.87A7.3,7.3,0,0,1,541.76,250.38Zm4-26.87a7.3,7.3,0,0,1-6.93-5l1.26-6.87a7.29,7.29,0,0,1,11.34,0l1.26,6.87A7.3,7.3,0,0,1,545.73,223.51Z"/><polygon class="cls-5" points="501.52 285.83 500.26 292.7 505.46 292.7 505.46 295.43 507.83 295.43 507.83 292.7 513.03 292.7 511.77 285.83 501.52 285.83"/><path class="cls-5" d="M442.11,174.24l7,21.4a20.92,20.92,0,0,1,4.5-.71v-58.1c-.39,0-.77,0-1.15,0a78.38,78.38,0,0,0-9,.76c-.42.06-.85.09-1.28.16-.69.11-1.37.27-2.06.4-1.22.23-2.45.44-3.65.73l-.16,0c-1.8.43-3.59.92-5.35,1.47Z"/><path class="cls-5" d="M460.17,195.6l7.19-22.39,10.57-32.93-.06,0c-1.52-.46-3.05-.86-4.57-1.23l-.78-.2c-1.15-.26-2.3-.47-3.46-.68-.66-.12-1.32-.27-2-.37q-2.91-.47-5.81-.7c-1-.08-2-.1-3-.15-.81,0-1.61-.08-2.42-.09v58.09A20.77,20.77,0,0,1,460.17,195.6Z"/><path class="cls-5" d="M443.16,198.32a21,21,0,0,1,3.92-2l-5-15.12-13.17-40-1.07.37q-2.44.89-4.82,1.92c-.76.34-1.53.66-2.28,1-.6.28-1.19.56-1.78.86-1.53.77-3,1.58-4.51,2.45-.42.25-.82.52-1.23.77-1.2.74-2.39,1.51-3.55,2.31l-.67.47,22.3,30.7Z"/><path class="cls-5" d="M496.14,161l-28.07,38.63a21.4,21.4,0,0,1,3.13,3.11l24.87-18.2,22-16.09c-.15-.19-.28-.38-.43-.56-1.26-1.65-2.58-3.26-4-4.8-.34-.39-.71-.75-1.06-1.13-1.05-1.12-2.15-2.2-3.27-3.27-.67-.64-1.34-1.28-2-1.89-1.22-1.09-2.49-2.12-3.78-3.14-.43-.33-.84-.7-1.28-1Z"/><path class="cls-5" d="M462.24,196.26a21.3,21.3,0,0,1,4.07,2.06l29.83-41,4.28-5.9c-1.33-1-2.67-1.9-4.07-2.76l-.21-.14c-1.37-.84-2.78-1.63-4.2-2.39-.56-.3-1.13-.57-1.7-.85-.81-.41-1.63-.82-2.46-1.2s-1.65-.72-2.49-1.07l-1.78-.73c-.95-.36-1.9-.72-2.87-1L480,141l-12.63,39.36Z"/><path class="cls-5" d="M472.48,204.46a21.55,21.55,0,0,1,2.07,4.06l21.59-7,33.64-10.93c-.22-.64-.43-1.28-.67-1.92l-.36-1c-.42-1.1-.87-2.18-1.34-3.26-.13-.3-.26-.6-.4-.9-.48-1.06-1-2.1-1.5-3.13-.15-.3-.3-.6-.46-.9-.73-1.4-1.49-2.77-2.3-4.11-.13-.22-.25-.45-.39-.67-.93-1.52-1.91-3-3-4.48l-.06-.09-23.28,17.05Z"/><path class="cls-5" d="M475.22,210.59a21.46,21.46,0,0,1,.69,4.35l20.16-.07,37.91-.14a79.42,79.42,0,0,0-.81-10.18c-.06-.45-.14-.89-.21-1.33-.21-1.29-.46-2.58-.74-3.85-.13-.62-.26-1.25-.41-1.86-.28-1.14-.59-2.25-.91-3.36-.14-.51-.27-1-.43-1.51l-34.33,11.15Z"/><path class="cls-4" d="M454.74,132.51a7.3,7.3,0,0,0,6.93-5l-1.26-6.87a7.3,7.3,0,0,0-11.34,0l-1.26,6.87A7.29,7.29,0,0,0,454.74,132.51Zm-5.13-11.88h10.25l1.26,6.87h-5.2v2.73h-2.36V127.5h-5.21Z"/><path class="cls-4" d="M454.74,113.6h0a102.51,102.51,0,0,0,0,205h0a102.51,102.51,0,0,0,0-205Zm0,203.25h0a100.75,100.75,0,0,1,0-201.49h0a100.75,100.75,0,0,1,0,201.49Z"/><path class="cls-4" d="M483.44,136.79a7.3,7.3,0,0,0,6.93-5l-1.26-6.87a7.29,7.29,0,0,0-11.34,0l-1.26,6.87A7.3,7.3,0,0,0,483.44,136.79Zm-5.13-11.88h10.25l1.26,6.87h-5.2v2.73h-2.36v-2.73h-5.2Z"/><path class="cls-4" d="M507.87,149.31a7.3,7.3,0,0,0,6.93-5l-1.26-6.87a7.29,7.29,0,0,0-11.34,0l-1.26,6.87A7.3,7.3,0,0,0,507.87,149.31Zm-5.13-11.88H513l1.26,6.87h-5.2V147h-2.36V144.3h-5.2Z"/><path class="cls-4" d="M528,169.77a7.3,7.3,0,0,0,6.93-5l-1.26-6.87a7.29,7.29,0,0,0-11.34,0l-1.26,6.87A7.3,7.3,0,0,0,528,169.77Zm-5.13-11.88h10.26l1.25,6.87h-5.2v2.73h-2.36v-2.73h-5.2Z"/><path class="cls-4" d="M540.85,193.28a7.28,7.28,0,0,0,6.92-5l-1.25-6.87a7.3,7.3,0,0,0-11.35,0l-1.25,6.87A7.29,7.29,0,0,0,540.85,193.28Zm-5.13-11.88H546l1.26,6.87H542V191h-2.37v-2.73h-5.2Z"/><path class="cls-4" d="M551.4,211.63a7.29,7.29,0,0,0-11.34,0l-1.26,6.87a7.3,7.3,0,0,0,13.86,0Zm-4.49,6.87v2.73h-2.36V218.5h-5.2l1.26-6.87h10.25l1.26,6.87Z"/><path class="cls-4" d="M541.76,235.79a7.29,7.29,0,0,0-5.67,2.71h0l-1.26,6.87a7.3,7.3,0,0,0,13.86,0l-1.26-6.87A7.27,7.27,0,0,0,541.76,235.79Zm6.39,9.58h-5.21v2.73h-2.36v-2.73h-5.2l1.26-6.87h10.25Z"/><path class="cls-4" d="M528,262.05a7.29,7.29,0,0,0-5.67,2.71l-1.26,6.87a7.3,7.3,0,0,0,13.86,0l-1.26-6.87A7.29,7.29,0,0,0,528,262.05Zm6.38,9.58h-5.2v2.73h-2.36v-2.73h-5.2l1.25-6.87h10.26Z"/><path class="cls-4" d="M506.65,283.12a7.31,7.31,0,0,0-5.68,2.71l-1.25,6.87a7.29,7.29,0,0,0,13.85,0l-1.25-6.87A7.29,7.29,0,0,0,506.65,283.12ZM513,292.7h-5.2v2.73h-2.37V292.7h-5.2l1.26-6.87h10.25Z"/><path class="cls-4" d="M481.91,295.94a7.29,7.29,0,0,0-5.67,2.71L475,305.53a7.3,7.3,0,0,0,13.86,0l-1.26-6.88A7.27,7.27,0,0,0,481.91,295.94Zm6.39,9.59h-5.21v2.72h-2.36v-2.72h-5.2l1.26-6.88H487Z"/><path class="cls-4" d="M425.92,136.79a7.3,7.3,0,0,0,6.93-5l-1.26-6.87a7.29,7.29,0,0,0-11.34,0L419,131.78A7.3,7.3,0,0,0,425.92,136.79Zm-5.13-11.88H431l1.26,6.87h-5.2v2.73h-2.36v-2.73h-5.21Z"/><path class="cls-4" d="M401.49,149.31a7.3,7.3,0,0,0,6.93-5l-1.26-6.87a7.29,7.29,0,0,0-11.34,0l-1.26,6.87A7.3,7.3,0,0,0,401.49,149.31Zm-5.13-11.88h10.26l1.25,6.87h-5.2V147h-2.36V144.3h-5.2Z"/><path class="cls-4" d="M381.34,169.77a7.28,7.28,0,0,0,6.92-5L387,157.89a7.29,7.29,0,0,0-11.34,0l-1.26,6.87A7.3,7.3,0,0,0,381.34,169.77Zm-5.13-11.88h10.25l1.26,6.87h-5.2v2.73h-2.37v-2.73H375Z"/><path class="cls-4" d="M368.51,193.28a7.3,7.3,0,0,0,6.93-5l-1.26-6.87a7.29,7.29,0,0,0-11.34,0l-1.26,6.87A7.3,7.3,0,0,0,368.51,193.28Zm-5.13-11.88h10.26l1.25,6.87h-5.2V191h-2.36v-2.73h-5.2Z"/><path class="cls-4" d="M370.55,218.5l-1.25-6.87a7.3,7.3,0,0,0-11.35,0l-1.25,6.87a7.29,7.29,0,0,0,13.85,0Zm-13.31,0,1.26-6.87h10.25L370,218.5h-5.2v2.73h-2.37V218.5Z"/><path class="cls-4" d="M373.27,238.5a7.3,7.3,0,0,0-11.35,0l-1.25,6.87a7.29,7.29,0,0,0,13.85,0Zm-4.49,6.87v2.73h-2.37v-2.73h-5.2l1.26-6.87h10.25l1.26,6.87Z"/><path class="cls-4" d="M381.34,262.05a7.27,7.27,0,0,0-5.67,2.71l-1.26,6.87a7.29,7.29,0,0,0,13.85,0L387,264.76A7.29,7.29,0,0,0,381.34,262.05Zm6.38,9.58h-5.2v2.73h-2.37v-2.73H375l1.26-6.87h10.25Z"/><path class="cls-4" d="M402.71,283.12a7.29,7.29,0,0,0-5.67,2.71l-1.26,6.87a7.3,7.3,0,0,0,13.86,0l-1.26-6.87A7.27,7.27,0,0,0,402.71,283.12Zm6.38,9.58h-5.2v2.73h-2.36V292.7h-5.2l1.25-6.87h10.26Z"/><path class="cls-4" d="M427.44,295.94a7.29,7.29,0,0,0-5.67,2.71l-1.26,6.88a7.3,7.3,0,0,0,13.86,0l-1.25-6.88A7.31,7.31,0,0,0,427.44,295.94Zm6.39,9.59h-5.2v2.72h-2.37v-2.72h-5.2l1.26-6.88h10.25Z"/><path class="cls-4" d="M454.74,299.92a7.26,7.26,0,0,0-5.67,2.7l-1.26,6.87a7.3,7.3,0,0,0,13.86,0l-1.26-6.87A7.28,7.28,0,0,0,454.74,299.92Zm6.38,9.57h-5.2v2.73h-2.36v-2.73h-5.21l1.26-6.87h10.25Z"/><path class="cls-4" d="M502.86,281.31c1.33-1,2.64-2,3.91-3.07.43-.37.88-.72,1.31-1.1,1.37-1.19,2.7-2.42,4-3.71.1-.1.18-.21.28-.31,1.48-1.49,2.87-3.05,4.23-4.66.27-.31.56-.6.81-.91,1.58-1.92,3.08-3.91,4.48-6l.1-.14c1.44-2.13,2.79-4.34,4-6.63.54-1,1-2,1.48-3.07.61-1.24,1.25-2.45,1.8-3.73.77-1.79,1.42-3.65,2.06-5.51.18-.54.42-1,.6-1.6a.53.53,0,0,1,0-.12c.69-2.18,1.26-4.42,1.77-6.68.11-.45.25-.89.35-1.34.27-1.31.43-2.66.64-4s.5-2.84.65-4.25c0-.38,0-.77.07-1.15.21-2.39.35-4.77.36-7.14v-.1c0-.29,0-.58,0-.87,0-2.37-.13-4.73-.36-7.08-.08-.88-.25-1.74-.36-2.61-.23-1.72-.45-3.44-.79-5.13-.26-1.33-.61-2.61-.93-3.92s-.58-2.42-.93-3.61c-.46-1.51-1-3-1.54-4.47-.35-.95-.67-1.92-1.05-2.86-.61-1.5-1.31-3-2-4.41-.33-.7-.6-1.42-1-2.11-.12-.24-.27-.48-.4-.72-.39-.74-.81-1.47-1.23-2.2Q524,174,522.7,172c-.39-.6-.76-1.2-1.17-1.79-1.31-1.91-2.68-3.77-4.16-5.56-.12-.15-.25-.29-.38-.44-1.41-1.7-2.91-3.33-4.46-4.91-.16-.16-.3-.35-.46-.51s-.58-.53-.87-.81c-.76-.74-1.53-1.47-2.32-2.18-.51-.46-1-.9-1.55-1.34-.83-.71-1.67-1.43-2.54-2.11-.54-.42-1.1-.82-1.65-1.23-.87-.65-1.73-1.31-2.63-1.92s-2-1.27-2.95-1.89c-.5-.31-1-.66-1.49-1q-2.07-1.22-4.23-2.32c-.62-.32-1.27-.61-1.9-.92-.79-.38-1.58-.76-2.38-1.12s-1.75-.74-2.63-1.09l-1.78-.7c-1-.36-2-.71-3-1-.23-.08-.44-.17-.67-.24l-.67-.19c-1.51-.46-3-.89-4.56-1.27l-1.51-.37c-1.33-.3-2.67-.56-4-.79-.46-.08-.92-.2-1.39-.28-.22,0-.44,0-.67-.08-1.24-.18-2.49-.31-3.75-.44-.84-.08-1.67-.2-2.51-.26-.62,0-1.25,0-1.87-.07-1.37-.06-2.74-.15-4.1-.15a79.38,79.38,0,0,0-9.77.69c-.72.09-1.46.15-2.18.26l-.4.05c-1.36.21-2.71.49-4.06.78s-2.67.61-4,1c-.75.2-1.5.37-2.24.59l-.48.13a80.47,80.47,0,0,0-19.88,9.12l-1.06.68c-1.94,1.27-3.85,2.6-5.67,4-.22.18-.43.37-.65.54-1.55,1.24-3,2.54-4.48,3.89-.52.48-1,.95-1.54,1.44l-.64.61c-.55.54-1,1.15-1.55,1.7-1.11,1.18-2.23,2.36-3.28,3.61-.64.77-1.24,1.59-1.86,2.39-1,1.24-1.94,2.48-2.84,3.79-.7,1-1.32,2.1-2,3.15s-1.44,2.26-2.09,3.45c-.83,1.5-1.56,3-2.3,4.6-.38.82-.81,1.6-1.16,2.43-.93,2.13-1.73,4.32-2.47,6.54-.11.31-.24.59-.34.9l0,.1c-.7,2.2-1.28,4.46-1.79,6.74-.1.43-.24.86-.33,1.29-.28,1.32-.44,2.68-.65,4s-.5,2.82-.65,4.23c0,.38,0,.78-.07,1.17-.21,2.38-.35,4.75-.35,7.11,0,0,0,.07,0,.1,0,.31,0,.6,0,.9,0,2.37.12,4.72.35,7.05.09.89.25,1.75.37,2.63.23,1.71.44,3.43.78,5.11.26,1.33.61,2.62.94,3.93s.57,2.41.92,3.6c.46,1.52,1,3,1.55,4.47.34,1,.66,1.92,1,2.86.61,1.5,1.31,2.95,2,4.41.33.69.61,1.42,1,2.11.11.22.25.43.37.65.53,1,1.1,2,1.67,2.95.69,1.18,1.38,2.35,2.13,3.5.56.87,1.15,1.71,1.75,2.56q1.31,1.85,2.71,3.62c.56.71,1.12,1.41,1.7,2.09,1.1,1.3,2.25,2.55,3.44,3.78.34.36.65.76,1,1.11s.46.43.69.65c.61.6,1.23,1.18,1.86,1.76.91.84,1.85,1.64,2.79,2.44.62.51,1.22,1,1.84,1.53q2.24,1.76,4.59,3.35c.53.37,1.08.7,1.63,1.06,1.3.83,2.62,1.64,4,2.4.49.28,1,.56,1.48.83a80.17,80.17,0,0,0,13.42,5.74l.28.11.22.06c.38.12.76.27,1.15.39,1.24.37,2.51.67,3.78,1l1.17.3c1.38.33,2.78.58,4.19.83.54.1,1.09.24,1.64.33l.32,0c.94.14,1.89.23,2.84.34a81.36,81.36,0,0,0,9.19.62c1.25,0,2.5-.09,3.74-.14.75,0,1.51,0,2.26-.08.91-.07,1.81-.19,2.71-.28,1.15-.12,2.31-.24,3.44-.41l.75-.09c.5-.07,1-.2,1.48-.29,1.35-.24,2.68-.5,4-.8l1.79-.43c1.52-.39,3-.82,4.5-1.28l1.24-.39q2.79-.93,5.48-2l.15-.06a80.72,80.72,0,0,0,10.14-5.09c1.83-1.09,3.6-2.27,5.34-3.5C502,282,502.4,281.65,502.86,281.31Zm-6.79,2.46c-1.64,1-3.31,1.93-5,2.81l-.46.22c-1.5.76-3,1.47-4.56,2.14l-.85.35c-1.39.57-2.8,1.12-4.22,1.62l-.45.15L467.36,251l-5-15.11a21.31,21.31,0,0,0,3.92-2l29.83,41.06,4.28,5.88C499,281.83,497.56,282.86,496.07,283.77Zm-18,8.1c-1.28.39-2.57.74-3.87,1.07-.54.13-1.08.29-1.62.41-1.12.26-2.24.47-3.37.68-.74.13-1.48.29-2.23.41-1.88.3-3.77.52-5.68.68-.95.08-1.93.1-2.9.14s-1.72.09-2.59.1V237.28a20.83,20.83,0,0,0,4.5-.72l7,21.4,11.11,33.78Zm-25.58,3.46c-1.54-.05-3.07-.1-4.58-.23-1.91-.17-3.83-.39-5.74-.7-.69-.11-1.37-.27-2.05-.4a80.59,80.59,0,0,1-8.59-2.07L442.11,259l7.19-22.4a21.45,21.45,0,0,0,4.35.68v58.1Zm-23.89-4.41q-2.87-1-5.6-2.2c-.71-.31-1.42-.61-2.12-.94s-1.5-.72-2.24-1.1q-1.71-.87-3.36-1.83c-.5-.28-1-.55-1.48-.85-1.64-1-3.24-2-4.8-3.11l22.32-30.72,11.83-16.29a20.74,20.74,0,0,0,4.07,2.06l-5.12,15.94-12.63,39.35Zm-21.95-11.79c-1.12-.85-2.21-1.73-3.28-2.64l-1-.83q-1.64-1.44-3.2-3l-.82-.8c-.67-.68-1.32-1.37-2-2.07-.44-.48-.88-1-1.31-1.45s-1.07-1.25-1.59-1.88-1-1.25-1.52-1.9l-.59-.78L422,241.39l16.24-11.89a21.33,21.33,0,0,0,3.12,3.11l-10.07,13.86-24.06,33.12ZM390.07,262c-1-1.47-2-3-3-4.51l-.39-.65q-1.2-2-2.28-4.08c-.17-.32-.34-.66-.51-1-.5-1-1-2-1.46-3l-.42-1c-.46-1.07-.9-2.14-1.32-3.22l-.38-1c-.23-.63-.44-1.27-.66-1.9l51.64-16.78,3.6-1.17a20.38,20.38,0,0,0,2.06,4.06L422,238.69l-31.92,23.37A.18.18,0,0,0,390.07,262Zm-11.49-23.9c-.33-1.13-.64-2.25-.92-3.4-.14-.61-.27-1.23-.41-1.85-.27-1.28-.52-2.56-.73-3.86-.08-.44-.16-.88-.22-1.32a79.58,79.58,0,0,1-.8-10.19l46.54-.16,11.53,0a20.79,20.79,0,0,0,.69,4.34l-2.93.95-52.33,17C378.85,239.08,378.72,238.58,378.58,238.09Zm-2.92-27.55c0-.2,0-.39,0-.58.11-1.4.3-2.77.47-4.14.09-.66.14-1.31.25-2s.27-1.43.41-2.15c.24-1.29.46-2.59.77-3.88.06-.25.14-.49.2-.74.37-1.48.78-3,1.24-4.44l52.31,17,2.93,1a20.91,20.91,0,0,0-.7,4.5l-11.52,0-46.56.17C375.49,213.7,375.55,212.11,375.66,210.54Zm7.92-29.4c.2-.41.41-.81.62-1.22.59-1.16,1.22-2.3,1.86-3.42.33-.56.64-1.12,1-1.66.6-1,1.24-2,1.88-2.91.29-.44.57-.88.87-1.32L422,193.87l14.87,10.72a21.6,21.6,0,0,0-2,3.93l-3.6-1.17-51.62-16.77A80.14,80.14,0,0,1,383.58,181.14Zm8.7-13.86c.23-.3.45-.59.69-.88.72-.9,1.47-1.78,2.23-2.65l.69-.77c.76-.85,1.55-1.68,2.35-2.49l.75-.75c1.12-1.11,2.28-2.19,3.46-3.23L403,156c1.36-1.17,2.75-2.3,4.19-3.38l.09-.06,24.07,33.14,10.07,13.85a21.44,21.44,0,0,0-3.22,3.24L422,191.19l-31-22.32C391.48,168.33,391.87,167.8,392.28,167.28Zm17.42-16.41c1.16-.8,2.35-1.57,3.55-2.31.41-.25.81-.52,1.23-.77,1.47-.87,3-1.68,4.51-2.45.59-.3,1.18-.58,1.78-.86.75-.36,1.52-.68,2.28-1q2.37-1,4.82-1.92l1.07-.37,13.17,40,5,15.12a21,21,0,0,0-3.92,2L431.33,182,409,151.34Zm26.81-11.94c1.2-.29,2.43-.5,3.65-.73.69-.13,1.37-.29,2.06-.4.43-.07.86-.1,1.28-.16a78.38,78.38,0,0,1,9-.76c.38,0,.76,0,1.15,0v58.1a20.92,20.92,0,0,0-4.5.71l-7-21.4L431,140.44c1.76-.55,3.55-1,5.35-1.47Zm21.73-2c1,0,2,.07,3,.15q2.89.24,5.81.7c.67.1,1.33.25,2,.37,1.16.21,2.31.42,3.46.68l.78.2c1.52.37,3.05.77,4.57,1.23l.06,0-10.57,32.93-7.19,22.39a20.77,20.77,0,0,0-4.35-.67V136.84C456.63,136.85,457.43,136.9,458.24,136.93Zm22.4,4.25c1,.33,1.92.69,2.87,1l1.78.73c.84.35,1.67.7,2.49,1.07s1.65.79,2.46,1.2c.57.28,1.14.55,1.7.85,1.42.76,2.83,1.55,4.2,2.39l.21.14c1.4.86,2.74,1.81,4.07,2.76l-4.28,5.9-29.83,41a21.3,21.3,0,0,0-4.07-2.06l5.12-15.94L480,141Zm26.64,15.58c.7.61,1.37,1.25,2,1.89,1.12,1.07,2.22,2.15,3.27,3.27.35.38.72.74,1.06,1.13,1.39,1.54,2.71,3.15,4,4.8.15.18.28.37.43.56l-22,16.09L471.2,202.7a21.4,21.4,0,0,0-3.13-3.11L496.14,161l6.08-8.36c.44.32.85.69,1.28,1C504.79,154.64,506.06,155.67,507.28,156.76Zm12.13,13.47c1,1.46,2,3,3,4.48.14.22.26.45.39.67.81,1.34,1.57,2.71,2.3,4.11.16.3.31.6.46.9.52,1,1,2.07,1.5,3.13.14.3.27.6.4.9.47,1.08.92,2.16,1.34,3.26l.36,1c.24.64.45,1.28.67,1.92l-33.64,10.93-21.59,7a21.55,21.55,0,0,0-2.07-4.06l23.59-17.27,23.28-17.05Zm11.49,23.92c.32,1.11.63,2.22.91,3.36.15.61.28,1.24.41,1.86.28,1.27.53,2.56.74,3.85.07.44.15.88.21,1.33a79.42,79.42,0,0,1,.81,10.18l-37.91.14-20.16.07a21.46,21.46,0,0,0-.69-4.35l20.92-6.8,34.33-11.15C530.63,193.13,530.76,193.64,530.9,194.15Zm2.91,27.59c0,.17,0,.33,0,.5-.11,1.41-.29,2.79-.47,4.18-.09.64-.14,1.29-.24,1.93s-.28,1.45-.42,2.17c-.24,1.29-.46,2.58-.77,3.86-.06.25-.14.5-.2.75-.37,1.48-.78,3-1.24,4.43l-34.31-11.15-20.92-6.8a20.81,20.81,0,0,0,.69-4.5l20.16-.07L534,216.9C534,218.53,533.93,220.14,533.81,221.74Zm-7.91,29.32-.63,1.23c-.59,1.15-1.21,2.29-1.86,3.41-.32.56-.64,1.12-1,1.67-.6,1-1.23,1.94-1.86,2.88-.3.45-.58.9-.89,1.34l-23.61-17-23.51-16.95a21.32,21.32,0,0,0,2-3.93l21.59,7,33.63,10.92A80.45,80.45,0,0,1,525.9,251.06Zm-29.76,20.18-28.07-38.63a21.38,21.38,0,0,0,3.22-3.23l24.78,17.86,22.32,16.1-.65.87c-1.25,1.63-2.54,3.23-3.9,4.75-.36.4-.74.77-1.11,1.17-1.1,1.18-2.25,2.33-3.43,3.44-.63.59-1.25,1.19-1.89,1.76-1.5,1.33-3,2.62-4.63,3.82-.18.14-.35.3-.53.43l0,0Z"/><path class="cls-4" d="M454.74,110.73a2.28,2.28,0,1,0-2.28-2.27A2.27,2.27,0,0,0,454.74,110.73Z"/><path class="cls-4" d="M454.74,321.48a2.27,2.27,0,1,0,2.27,2.27A2.27,2.27,0,0,0,454.74,321.48Z"/><path class="cls-4" d="M562.38,213.83a2.27,2.27,0,1,0,2.27,2.27A2.27,2.27,0,0,0,562.38,213.83Z"/><path class="cls-4" d="M347.09,213.83a2.27,2.27,0,1,0,2.27,2.27A2.27,2.27,0,0,0,347.09,213.83Z"/><path class="cls-4" d="M489.25,116.54a2.27,2.27,0,1,0-1.41-2.89A2.28,2.28,0,0,0,489.25,116.54Z"/><path class="cls-4" d="M420.23,315.66a2.28,2.28,0,1,0,1.4,2.9A2.27,2.27,0,0,0,420.23,315.66Z"/><path class="cls-4" d="M519.77,130.29a2.27,2.27,0,1,0-3.17.51A2.27,2.27,0,0,0,519.77,130.29Z"/><path class="cls-4" d="M389.7,301.91a2.27,2.27,0,1,0,3.17-.51A2.26,2.26,0,0,0,389.7,301.91Z"/><path class="cls-4" d="M541.28,152a2.27,2.27,0,1,0-3.19-.4A2.27,2.27,0,0,0,541.28,152Z"/><path class="cls-4" d="M368.19,280.16a2.27,2.27,0,1,0,3.19.4A2.26,2.26,0,0,0,368.19,280.16Z"/><path class="cls-4" d="M556.77,181.72a2.27,2.27,0,1,0-2.91-1.37A2.28,2.28,0,0,0,556.77,181.72Z"/><path class="cls-4" d="M352.7,250.48a2.28,2.28,0,1,0,2.91,1.37A2.27,2.27,0,0,0,352.7,250.48Z"/><path class="cls-4" d="M557,249.76a2.27,2.27,0,1,0,1.39,2.9A2.27,2.27,0,0,0,557,249.76Z"/><path class="cls-4" d="M352.46,182.45a2.27,2.27,0,1,0,1.51-4.29,2.27,2.27,0,0,0-1.51,4.29Z"/><path class="cls-4" d="M537.85,280.88a2.27,2.27,0,1,0,3.18-.39A2.26,2.26,0,0,0,537.85,280.88Z"/><path class="cls-4" d="M371.63,151.32a2.27,2.27,0,1,0-3.19.4A2.28,2.28,0,0,0,371.63,151.32Z"/><path class="cls-4" d="M515.77,302a2.27,2.27,0,1,0,3.17.53A2.27,2.27,0,0,0,515.77,302Z"/><path class="cls-4" d="M393.7,130.21a2.27,2.27,0,1,0-3.17-.54A2.27,2.27,0,0,0,393.7,130.21Z"/><path class="cls-4" d="M489.85,315.45a2.27,2.27,0,1,0,2.9,1.39A2.27,2.27,0,0,0,489.85,315.45Z"/><path class="cls-4" d="M419.62,116.75a2.27,2.27,0,1,0-2.89-1.39A2.27,2.27,0,0,0,419.62,116.75Z"/><polygon class="cls-4" points="874.24 198.97 839.56 171.21 804.88 198.97 804.88 220.6 796.61 213.98 781.15 226.36 777.71 223.6 751.43 244.64 751.43 329.92 803.98 329.92 803.98 320.3 822.88 320.3 822.88 311.54 874.24 311.54 874.24 198.97"/><path class="cls-5" d="M132.84,266.42V262q-1.67.74-3.36,1.44c-1.11.46-2.23.92-3.36,1.36V270c1.13-.57,2.25-1.16,3.36-1.75S131.73,267,132.84,266.42Z"/><path class="cls-5" d="M132.84,283.34V268.68q-1.67.92-3.36,1.8c-1.11.59-2.23,1.16-3.36,1.73v13c1.13-.28,2.25-.58,3.36-.88Z"/><path class="cls-5" d="M132.84,298.68v-7c-1.11.43-2.23.86-3.36,1.28s-2.23.81-3.36,1.21v4.54Z"/><path class="cls-5" d="M132.84,289.51v-4.1q-1.67.48-3.36.93c-1.11.31-2.23.6-3.36.88V292q1.69-.6,3.36-1.23T132.84,289.51Z"/><path class="cls-5" d="M141.56,298.68V288l-.55.24c-.93.41-1.87.82-2.82,1.22-1.1.47-2.22.93-3.36,1.39v7.82Z"/><path class="cls-5" d="M150.27,298.68v-14.8c-1.11.56-2.23,1.11-3.36,1.66s-2.23,1.06-3.36,1.57v11.57Z"/><path class="cls-5" d="M138.19,263.34c1.14-.67,2.26-1.35,3.37-2v-3.42c-1.11.56-2.23,1.11-3.37,1.65l-1.45.68-1.91.88v4.2l1-.57C136.62,264.27,137.41,263.81,138.19,263.34Z"/><path class="cls-5" d="M140.21,286.44l1.35-.6v-3.18l-.63.21c-.9.31-1.81.61-2.74.91-1.1.35-2.22.7-3.36,1v3.89c1.14-.46,2.26-.93,3.36-1.4Z"/><path class="cls-5" d="M140.29,281l1.27-.43V263.63c-1.11.68-2.23,1.35-3.37,2l-1.37.81-2,1.12v15.18c1.14-.35,2.26-.7,3.36-1.06Z"/><path class="cls-5" d="M150.27,281.65v-2.23c-1.11.44-2.23.88-3.36,1.31s-2.23.83-3.36,1.23v3c1.13-.53,2.25-1.06,3.36-1.6S149.16,282.22,150.27,281.65Z"/><path class="cls-5" d="M115.42,287.56V277.21q-1.67.72-3.36,1.41c-1.11.46-2.24.91-3.36,1.34v8.8c1.12-.18,2.25-.37,3.36-.57S114.31,287.78,115.42,287.56Z"/><path class="cls-5" d="M115.42,295.52v-5.93c-1.11.21-2.23.42-3.36.61s-2.24.39-3.36.57v6.63c1.12-.29,2.25-.6,3.36-.91S114.31,295.85,115.42,295.52Z"/><path class="cls-5" d="M115.42,275.05v-6.43q-1.67.54-3.36,1.05c-1.11.34-2.24.66-3.36,1v7.19c1.12-.45,2.25-.9,3.36-1.36S114.31,275.53,115.42,275.05Z"/><path class="cls-5" d="M106.71,289.07v-8.34c-1.12.42-2.24.82-3.36,1.22s-2.24.78-3.37,1.16V290c1.13-.13,2.25-.27,3.37-.42Z"/><path class="cls-5" d="M106.71,278.61v-7.42c-1.12.3-2.24.59-3.36.86s-2.24.54-3.37.79V281c1.13-.38,2.25-.77,3.37-1.17Z"/><path class="cls-5" d="M124.13,292.73v-5l-3.36.77c-1.11.25-2.23.48-3.36.71v5.73l3.36-1.06C121.9,293.49,123,293.11,124.13,292.73Z"/><path class="cls-5" d="M124.13,285.67V273.2c-1.11.54-2.23,1.08-3.36,1.61s-2.23,1-3.36,1.53v10.83c1.13-.24,2.25-.47,3.36-.72Z"/><path class="cls-5" d="M124.13,271v-5.43c-1.11.42-2.23.84-3.36,1.24s-2.23.79-3.36,1.17v6.19c1.13-.5,2.25-1,3.36-1.54S123,271.54,124.13,271Z"/><path class="cls-5" d="M111.6,298.68h3.82v-1.09l-3.36,1Z"/><path class="cls-5" d="M124.13,298.68v-3.85L120.77,296c-1.11.35-2.23.71-3.36,1.05v1.68Z"/><path class="cls-5" d="M150.27,277.27V258c-1.11.75-2.23,1.5-3.36,2.24s-2.23,1.43-3.36,2.14v17.45c1.13-.41,2.25-.82,3.36-1.25S149.16,277.72,150.27,277.27Z"/><path class="cls-5" d="M185.12,298.68V260.35q-1.6,1.48-3.36,3c-1.08.93-2.2,1.85-3.36,2.78v32.56Z"/><polygon class="cls-5" points="170.27 240.14 169.98 240.36 169.68 240.58 169.68 240.65 169.98 240.4 170.27 240.14"/><path class="cls-5" d="M176.4,263.47v-26.2c-2,1.89-4.17,3.81-6.42,5.74l-.3.25v24.47l.3-.17C172.24,266.22,174.38,264.85,176.4,263.47Z"/><polygon class="cls-5" points="170.51 269.54 169.98 269.85 169.68 270.02 169.68 270.12 169.98 269.91 170.51 269.54"/><path class="cls-5" d="M192.82,249a.94.94,0,0,1,.76-.33v-30c-1.84,2.4-4,5-6.47,7.74V255A59.37,59.37,0,0,0,192.82,249Z"/><path class="cls-5" d="M185.12,256.82V228.63q-1.6,1.71-3.36,3.47t-3.36,3.3v26.69c1.16-.84,2.28-1.67,3.36-2.51S184.05,257.74,185.12,256.82Z"/><path class="cls-5" d="M176.4,298.68v-31c-2,1.56-4.17,3.11-6.42,4.65l-.3.2v26.16Z"/><path class="cls-5" d="M193.58,298.68V251.21a76.15,76.15,0,0,1-6.47,7.23v40.24Z"/><path class="cls-5" d="M159,276.9v-1.29c-1.1.52-2.22,1-3.36,1.54s-2.23,1-3.36,1.45v2c1.14-.6,2.26-1.2,3.36-1.81S157.88,277.54,159,276.9Z"/><path class="cls-5" d="M159,273.42V251.81c-1.1.83-2.22,1.65-3.36,2.47s-2.23,1.59-3.36,2.38v19.78c1.14-.48,2.26-1,3.36-1.46Z"/><path class="cls-5" d="M103.59,298.68l3.12-.76v-6.85l-3.36.47c-1.12.15-2.24.29-3.37.42v6.72Z"/><path class="cls-5" d="M159,298.68V279.19c-1.1.64-2.22,1.26-3.36,1.88s-2.23,1.2-3.36,1.79v15.82Z"/><path class="cls-5" d="M150.27,255.63v-2.4c-1.11.63-2.23,1.25-3.36,1.87s-2.23,1.19-3.36,1.78v3.18c1.13-.72,2.25-1.44,3.36-2.17S149.16,256.39,150.27,255.63Z"/><path class="cls-5" d="M167.69,271.47v-.32c-1.09.61-2.21,1.21-3.36,1.81s-2.22,1.13-3.36,1.69v1.08q1.71-1,3.36-2.07T167.69,271.47Z"/><path class="cls-5" d="M167.69,268.88V244.93c-1.09.91-2.21,1.83-3.36,2.74s-2.22,1.76-3.36,2.63v22.14c1.14-.57,2.26-1.14,3.36-1.72S166.6,269.5,167.69,268.88Z"/><path class="cls-5" d="M159,249.33V248c-1.1.7-2.22,1.41-3.36,2.1s-2.23,1.35-3.36,2v2.16c1.14-.79,2.26-1.6,3.36-2.4S157.88,250.17,159,249.33Z"/><path class="cls-5" d="M167.69,242.35V242c-1.09.8-2.21,1.59-3.36,2.38s-2.22,1.51-3.36,2.26v1.13q1.71-1.34,3.36-2.67C165.48,244.2,166.6,243.28,167.69,242.35Z"/><path class="cls-5" d="M167.69,298.68V273.85c-1.09.72-2.21,1.43-3.36,2.14s-2.22,1.37-3.36,2v20.65Z"/><path class="cls-5" d="M276.5,291.77c.78-.23,1.56-.48,2.32-.73l1.45-.48.88-.3v-11.7c-.77.47-1.55.93-2.33,1.39l-.95.56-1.37.77Z"/><path class="cls-5" d="M282.52,289.77c.79-.28,1.56-.57,2.32-.86s1.57-.61,2.33-.92V274.68c-.76.52-1.54,1-2.33,1.55s-1.53,1-2.32,1.48Z"/><path class="cls-5" d="M287.17,273v-1.66l-2.33,1.29-2.32,1.23v2.2c.79-.5,1.56-1,2.32-1.5S286.41,273.55,287.17,273Z"/><path class="cls-5" d="M282.52,293.28c.79-.36,1.56-.73,2.32-1.1s1.57-.77,2.33-1.16v-1.55c-.76.31-1.54.61-2.33.91s-1.53.58-2.32.85Z"/><path class="cls-5" d="M282.52,302.47h4.65v-9.91c-.76.39-1.54.77-2.33,1.15s-1.53.73-2.32,1.09Z"/><path class="cls-5" d="M288.54,287.42c.79-.34,1.57-.67,2.33-1s1.56-.71,2.32-1.08V270.39l-2.32,1.71c-.76.55-1.54,1.09-2.33,1.64Z"/><path class="cls-5" d="M293.19,268.67v-.94c-.76.49-1.54,1-2.32,1.45s-1.54.94-2.33,1.39v1.5c.79-.55,1.57-1.11,2.33-1.67S292.43,269.25,293.19,268.67Z"/><path class="cls-5" d="M281.15,277v-2.36l-2.33,1.14-1,.47-1.32.61v2.9l.68-.39,1.64-1C279.6,277.9,280.38,277.43,281.15,277Z"/><path class="cls-5" d="M276.5,302.47h4.65v-7.05l-.38.16-1.95.85-2.32.95Z"/><path class="cls-5" d="M270.47,302.47h4.65v-4.54c-.76.3-1.54.59-2.32.88s-1.54.57-2.33.84Z"/><path class="cls-5" d="M276.5,295.9c.78-.32,1.56-.64,2.32-1l1.39-.61.94-.41v-2.19l-.44.14c-.62.22-1.25.42-1.89.63s-1.54.49-2.32.72Z"/><path class="cls-5" d="M294.57,284.65c.79-.39,1.56-.79,2.32-1.19s1.57-.85,2.33-1.27V265.63c-.76.63-1.54,1.26-2.33,1.9s-1.53,1.21-2.32,1.81Z"/><path class="cls-5" d="M300.8,284.56l-.21.14v17.77h2.18V283.14C302.11,283.61,301.49,284.09,300.8,284.56Z"/><path class="cls-5" d="M294.57,302.47h4.65V285.62c-.76.5-1.54,1-2.33,1.49s-1.53.94-2.32,1.41Z"/><path class="cls-5" d="M97.79,292.2v6.48H98v-6.5Z"/><path class="cls-5" d="M288.54,290.31c.79-.42,1.57-.83,2.33-1.26s1.56-.87,2.32-1.31v-.9l-2.32,1.07c-.76.34-1.54.67-2.33,1Z"/><path class="cls-5" d="M270.47,298.2l2.33-.85,2.32-.9v-2.83c-.76.22-1.54.43-2.32.64l-2.33.61Z"/><path class="cls-5" d="M288.54,302.47h4.65V289.32l-2.32,1.3c-.76.42-1.54.83-2.33,1.24Z"/><path class="cls-5" d="M294.57,286.92c.79-.47,1.56-.95,2.32-1.43s1.57-1,2.33-1.51v-.22c-.76.42-1.54.84-2.33,1.25l-2.32,1.17Z"/><path class="cls-5" d="M299.22,263.85v-.22c-.76.55-1.54,1.09-2.33,1.64s-1.53,1-2.32,1.56v.78c.79-.61,1.56-1.23,2.32-1.84S298.46,264.48,299.22,263.85Z"/><path class="cls-5" d="M97.79,290.2l.2,0v-6.42l-.2.06Z"/><path class="cls-5" d="M257.05,290.38l-1,.37v5.54l1-.15Z"/><path class="cls-5" d="M257.48,282.25l.15,0q1.58-.43,3.12-.9l2.73-.88.13,0c1.07-.35,2.12-.72,3.16-1.1s1.81-.66,2.69-1l.15,0c1.08-.42,2.14-.85,3.19-1.3.9-.38,1.78-.76,2.66-1.16l.13-.06c.56-.25,1.1-.49,1.65-.75l1.58-.75c.89-.43,1.77-.87,2.64-1.31l.13-.07c1.1-.57,2.19-1.15,3.25-1.73l2.61-1.47a.57.57,0,0,1,.13-.08c1.12-.65,2.22-1.31,3.29-2,.87-.55,1.73-1.09,2.57-1.64l.13-.09c1.14-.75,2.25-1.5,3.32-2.25.87-.61,1.72-1.22,2.54-1.83l.14-.1,1.23-.91c.69-.53,1.31-1.06,2-1.59v-7.32L256,235.25v47.38Z"/><path class="cls-5" d="M275.12,280.48v-3.05l-2.32,1-2.33.94V283c.79-.4,1.56-.8,2.33-1.21S274.36,280.91,275.12,280.48Z"/><path class="cls-5" d="M257.05,297.53l-1,.15v4.79h.18l.84-.2Z"/><path class="cls-5" d="M257.05,283.79l-1,.26v5.24l1-.38Z"/><polygon class="cls-5" points="301 262.32 300.8 262.47 300.59 262.62 300.59 262.67 300.8 262.49 301 262.32"/><path class="cls-5" d="M98,281.68v-8.4l-.2,0v8.42Z"/><path class="cls-5" d="M302.77,262.54c-.66.59-1.28,1.17-2,1.76l-.21.17v16.92l.21-.12c.69-.41,1.31-.83,2-1.25Z"/><polygon class="cls-5" points="300.59 282.98 300.59 283.04 300.8 282.9 301.17 282.64 300.8 282.86 300.59 282.98"/><path class="cls-5" d="M258.43,295.93c.78-.13,1.55-.25,2.32-.39l2.32-.43V288l-2.32,1c-.77.32-1.54.63-2.32.93Z"/><path class="cls-5" d="M263.07,286.45V282l-2.32.73-2.32.67v5l2.32-.94C261.53,287.12,262.3,286.79,263.07,286.45Z"/><path class="cls-5" d="M264.45,302.47h4.65v-2.34l-2.33.77-2.32.73Z"/><path class="cls-5" d="M264.45,300.19l2.32-.73,2.33-.78v-3.47l-2.33.53-2.32.49Z"/><path class="cls-5" d="M270.47,293.45l2.33-.61,2.32-.65V282.05c-.76.42-1.54.84-2.32,1.25s-1.54.8-2.33,1.19Z"/><path class="cls-5" d="M269.1,283.65v-3.76l-2.33.86c-.77.28-1.54.55-2.32.81v4.28l2.32-1.07Z"/><path class="cls-5" d="M264.45,294.83l2.32-.5c.78-.17,1.56-.35,2.33-.54v-8.62c-.77.38-1.55.75-2.33,1.11s-1.54.72-2.32,1.06Z"/><path class="cls-5" d="M258.43,301.91c.78-.2,1.55-.42,2.32-.63l2.32-.67V296.5c-.77.15-1.54.3-2.32.43s-1.54.27-2.32.39Z"/><path class="cls-5" d="M263.07,302l-1.49.43h1.49Z"/><path class="cls-4" d="M337.09,220.2v-4.53l-1.75-1.47v-5.56a.53.53,0,0,0-.53-.52.53.53,0,0,0-.53.52v5.56l-1.76,1.47v4.53l-1,.86v.47L321.38,213v-8.16l-1.24-1v-5.43l-2.05-1.73v-5.3a.66.66,0,0,0-.66-.66h-.07a.66.66,0,0,0-.66.66v5.3l-2.05,1.73v5.43l-1.24,1V213l-10.1,8.49v-.47l-1-.86v-4.53l-1.75-1.47v-5.56a.54.54,0,0,0-1.07,0v5.56l-1.74,1.47v4.53l-1,.86v5.17l-51-18.1V162.2l-1.7-1.43v-7.42l-2.87-2.42V141.8a.87.87,0,0,0-1.74,0v9.12l-2.89,2.43v7.42l-1.7,1.43V163L218.2,149V135.61l-2-1.71V125l-3.37-2.84v-8.71a1.08,1.08,0,0,0-1.08-1.08h-.11a1.08,1.08,0,0,0-1.08,1.08v8.71L207.14,125v8.92l-2,1.71V149L188.51,163v-.76l-1.7-1.43v-7.42l-2.89-2.43V141.8a.87.87,0,0,0-1.74,0v9.13l-2.88,2.42v7.42l-1.69,1.43v45.67a1,1,0,0,0-.84.36,113.12,113.12,0,0,1-8,8.7,1.45,1.45,0,0,0-.17.18c-1.24,1.21-2.54,2.46-3.91,3.72q-2.52,2.31-5.34,4.7a1.08,1.08,0,0,0-.2.16c-2.29,1.93-4.73,3.89-7.3,5.85L149.93,233a.8.8,0,0,0-.21.15c-1.31,1-2.64,1.93-4,2.88-1.7,1.19-3.44,2.38-5.23,3.55a1.64,1.64,0,0,0-.22.14q-2,1.31-4,2.58-2.53,1.58-5.19,3.12a1.13,1.13,0,0,0-.21.12c-1.35.78-2.71,1.55-4.1,2.32q-2.52,1.38-5.14,2.73a.75.75,0,0,0-.2.1q-2.06,1-4.16,2.07l-2.5,1.19-2.59,1.19-.21.09q-2.07.93-4.2,1.83c-1.66.7-3.33,1.38-5,2a.92.92,0,0,0-.23.09c-1.4.55-2.81,1.08-4.24,1.6q-2.47.89-5,1.73a.66.66,0,0,0-.2.06c-1.42.47-2.86.93-4.31,1.37q-2.44.75-4.92,1.43a1.09,1.09,0,0,0-.24.07c-1.44.39-2.88.77-4.34,1.13q-2.43.62-4.9,1.15l-.18,0-1,.2V238.18l-.82-.7v-3.62l-1.4-1.17v-4.45a.43.43,0,0,0-.85,0v4.44l-1.41,1.18v3.62l-.83.7v.37l-8.08-6.79v-6.53l-1-.84v-4.34l-1.65-1.38v-4.25a.53.53,0,0,0-.53-.53h-.05a.52.52,0,0,0-.52.53v4.25l-1.65,1.38v4.34l-1,.84v6.53l-8.09,6.79v-.37l-.82-.7v-3.62l-1.41-1.18v-4.44a.43.43,0,0,0-.85,0v4.45l-1.4,1.17v3.62l-.83.7V272.1a.95.95,0,0,0,0,1.74V287.1a1,1,0,0,0,0,1.76V290a1,1,0,0,0,0,1.75V304a1,1,0,0,0-.57.94,1,1,0,0,0,.57.81v4.61H65.67v.9H178.61v-.9h47.13v.9H338.12V221.06Zm-166.54-1.1c2.73-3,5-5.83,7.06-8.45v32.67a1.05,1.05,0,0,0-.84.36,65.54,65.54,0,0,1-6.22,6.56Zm7.06,27v51.76h-7.06V254A81.75,81.75,0,0,0,177.61,246.07Zm-16.56-17.24q1.9-1.82,3.66-3.6,1.92-1.92,3.67-3.78v30.74c-1.16,1-2.39,2-3.67,3s-2.39,1.83-3.66,2.74Zm3.66,30.47q1.92-1.64,3.67-3.27v41.8h-7.33v-35.5C162.31,261.32,163.54,260.31,164.71,259.3Zm-13.16-24.83.32-.23.31-.24-.31.28-.32.27Zm0,2.93.32-.27q3.67-3.16,7-6.26v28.57c-2.2,1.51-4.54,3-7,4.45l-.32.19Zm0,29.18.32-.18.58-.35-.58.42-.32.22Zm.32,2.51q3.67-2.52,7-5.07v33.81h-7.32V269.3Zm-9.82-28q1.86-1.23,3.66-2.47t3.66-2.59v.35q-1.78,1.51-3.66,3t-3.66,2.91Zm0,4q1.86-1.43,3.66-2.87t3.66-3v26.12c-1.19.67-2.41,1.34-3.66,2s-2.42,1.26-3.66,1.88Zm0,26.55c1.24-.61,2.46-1.22,3.66-1.85s2.47-1.3,3.66-2v.35q-1.78,1.2-3.66,2.39t-3.66,2.25Zm3.66,1.47q1.88-1.17,3.66-2.35v27.08h-7.32V275.32C143.29,274.59,144.51,273.84,145.71,273.1ZM132.54,247c1.24-.72,2.47-1.46,3.67-2.19s2.46-1.53,3.66-2.3V244q-1.8,1.38-3.66,2.73t-3.67,2.63Zm0,5q1.86-1.29,3.67-2.59t3.66-2.69v23.55q-1.8.87-3.66,1.71c-1.2.54-2.42,1.07-3.67,1.6Zm0,23.92c1.24-.51,2.46-1,3.67-1.57s2.46-1.12,3.66-1.68v1.4c-1.2.7-2.42,1.4-3.66,2.09s-2.42,1.32-3.67,2Zm3.67,2.7c1.24-.67,2.46-1.36,3.66-2.05v21.25h-7.33V280.59C133.78,279.94,135,279.29,136.21,278.63ZM123,252.25c1.24-.64,2.46-1.29,3.67-1.94s2.46-1.35,3.66-2v2.62c-1.2.82-2.42,1.65-3.66,2.46s-2.43,1.59-3.67,2.37Zm0,6q1.86-1.15,3.67-2.34t3.66-2.43v21c-1.2.49-2.42,1-3.66,1.45s-2.43.92-3.67,1.37Zm0,21.34c1.24-.45,2.46-.89,3.67-1.35s2.46-.95,3.66-1.43v2.44l-3.66,1.83L123,282.84Zm3.67,3.89q1.86-.88,3.66-1.8v16.13H123V285.22C124.28,284.66,125.5,284.08,126.71,283.5Zm-13.17-26.64,2.08-1,1.59-.75q1.85-.89,3.66-1.8v3.73q-1.82,1.13-3.66,2.22c-.85.51-1.72,1-2.58,1.51-.36.21-.72.42-1.09.62Zm0,7.05c.73-.4,1.45-.81,2.17-1.23l1.5-.87c1.23-.72,2.45-1.46,3.66-2.2v18.46l-1.38.48-2.28.76c-1.21.39-2.43.77-3.67,1.15Zm0,18.81c1.24-.37,2.46-.75,3.67-1.14l3-1,.68-.24v3.47l-1.47.65-2.19.95c-1.21.52-2.43,1-3.67,1.53Zm3.67,5.07c1-.43,2.05-.88,3.07-1.33l.59-.26v11.63h-7.33V289.3C114.78,288.81,116,288.3,117.21,287.79ZM104,260.88c1.24-.48,2.46-1,3.67-1.49s2.45-1,3.66-1.56v4.82c-1.21.67-2.43,1.34-3.66,2s-2.43,1.28-3.67,1.91Zm0,8.09c1.24-.62,2.46-1.25,3.67-1.88s2.45-1.3,3.66-2v16c-1.21.35-2.43.7-3.66,1s-2.43.65-3.67,1Zm0,16.37c1.24-.31,2.46-.63,3.67-1s2.45-.67,3.66-1v4.47c-1.21.48-2.43.95-3.66,1.42s-2.43.9-3.67,1.34Zm3.67,6.22c1.23-.46,2.45-.92,3.66-1.4v7.67H104v-4.95C105.28,292.45,106.5,292,107.71,291.56ZM94.54,264.34c1.23-.41,2.45-.83,3.67-1.27s2.45-.89,3.66-1.35v5.92q-1.82.9-3.66,1.77c-1.21.57-2.44,1.14-3.67,1.69Zm0,9.13c1.23-.55,2.45-1.1,3.67-1.67s2.45-1.16,3.66-1.75v13.59c-1.21.29-2.43.58-3.66.85s-2.44.54-3.67.79Zm0,14c1.23-.25,2.46-.51,3.67-.78s2.45-.55,3.66-.84v5.48l-3.66,1.22c-1.21.4-2.44.79-3.67,1.17Zm3.67,7.36,3.66-1.21v4.19H94.54V296C95.77,295.63,97,295.24,98.21,294.85Zm-5.84,3H88.2l.51-.13q1.85-.51,3.66-1.05ZM85,267.27c1.23-.35,2.45-.7,3.67-1.07s2.45-.75,3.66-1.14v7q-1.82.79-3.66,1.56c-1.22.51-2.44,1-3.67,1.48Zm0,10.16c1.23-.48,2.45-1,3.67-1.47s2.45-1,3.66-1.54v11.29c-1.21.24-2.43.47-3.66.68s-2.44.43-3.67.62Zm0,11.77c1.23-.19,2.45-.4,3.67-.61s2.45-.44,3.66-.67v6.47c-1.21.36-2.43.72-3.66,1.06s-2.44.67-3.67,1Zm-9.5-19.54c1.23-.28,2.45-.56,3.67-.86s2.45-.62,3.66-.94v8.08c-1.21.46-2.43.92-3.66,1.36s-2.44.86-3.67,1.27Zm0,11.19c1.23-.41,2.45-.83,3.67-1.26s2.45-.88,3.66-1.33v9.09l-3.66.52c-1.22.16-2.44.31-3.67.45Zm3.67,9.2c1.23-.16,2.45-.34,3.66-.51V297c-1.13.29-2.26.56-3.4.83H75.54V290.5C76.77,290.36,78,290.21,79.21,290.05Zm-6.06,7.78v-7.07l.22,0v7.09Zm.22-9.26-.22,0v-7l.22-.06Zm0-18.43v9.15l-.22.07v-9.18Zm221.15,8.71-.22.13V260.53l.22-.19c.75-.64,1.43-1.28,2.15-1.92v19.06C296,277.94,295.28,278.4,294.52,278.85Zm.4,1.5-.4.28-.22.15v-.07l.22-.13Zm-.62-21.79v-.05l.22-.16.22-.17-.22.19Zm2.37-11.79v8c-.72.58-1.39,1.15-2.15,1.73l-1.34,1-.15.11c-.9.66-1.82,1.33-2.77,2q-1.75,1.23-3.62,2.46a.42.42,0,0,0-.14.09c-.92.6-1.86,1.2-2.81,1.79-1.17.72-2.36,1.44-3.58,2.15a.46.46,0,0,0-.15.09c-.93.53-1.88,1.07-2.84,1.59-1.16.64-2.34,1.28-3.55,1.89l-.14.08c-.95.48-1.9,1-2.87,1.43l-1.73.82-1.79.82-.15.07c-.95.43-1.92.85-2.9,1.26q-1.73.72-3.48,1.41a.76.76,0,0,0-.16.06c-1,.38-1.94.75-2.93,1.1q-1.71.63-3.45,1.2l-.14.05-3,.95c-1.12.34-2.26.67-3.4,1l-.17.05-1.58.41V228.67Zm-51,42.42,1.11-.41v6.29l-1.11.16Zm0-1.59v-5.72l1.11-.29v5.59Zm0,14.37v-5.23l1.11-.16v5.16l-.91.23Zm5.15-14.77,2.53-1.07v7.81l-2.53.47-2.54.43v-6.63C249.17,287.88,250,287.54,250.85,287.2Zm-2.54-.6v-5.42l2.54-.73,2.53-.79v4.84c-.84.37-1.68.73-2.53,1.08S249.17,286.27,248.31,286.6Zm2.54,9.33,2.53-.47v4.48l-2.53.73-2.54.69v-5C249.17,296.22,250,296.08,250.85,295.93Zm2.53,5.57V302h-1.63Zm4-17.18,2.53-1.21v9.4l-2.53.58-2.54.55v-8.17Zm-2.54-.49v-4.67c.86-.28,1.7-.58,2.54-.88s1.69-.61,2.53-.93v4.09c-.84.42-1.68.82-2.53,1.23S255.74,283.45,254.88,283.83Zm2.54,10.8,2.53-.58v3.78l-2.53.85c-.84.27-1.68.54-2.54.8v-4.32Zm0,5.63,2.53-.84V302h-5.07v-.92Zm6.57-19.2c.85-.45,1.7-.9,2.53-1.36v11.05c-.83.25-1.68.49-2.53.72s-1.68.45-2.54.66v-9.77C262.31,281.93,263.15,281.5,264,281.06Zm-2.54-.37v-3.92l2.54-1,2.53-1.08V278c-.83.47-1.68.93-2.53,1.38S262.31,280.25,261.45,280.69ZM264,293l2.53-.71v3.09l-2.53,1-2.54.93v-3.63Zm0,5c.85-.32,1.7-.64,2.53-1v5h-5.07v-3.08C262.31,298.6,263.15,298.29,264,298Zm5.53-20,1-.61c.85-.5,1.69-1,2.53-1.52v12.77l-.95.32-1.58.53-2.54.79V278.86Zm-1.5-.87V274q.72-.32,1.44-.66l1.1-.51,2.53-1.25v2.58l-2.53,1.54-1.79,1Zm2.54,13.93,2.06-.68.47-.16v2.39c-.34.16-.67.3-1,.45l-1.51.67c-.84.35-1.68.71-2.54,1.05v-2.93Zm0,4.3,2.12-.92.41-.19V302H268v-5.55Zm6.56-22c.86-.56,1.71-1.12,2.54-1.69v14.52c-.83.34-1.68.67-2.54,1s-1.67.63-2.53.94V275C275.45,274.43,276.29,273.89,277.12,273.35Zm-2.53-.15v-2.4c.86-.44,1.7-.89,2.53-1.34s1.71-.93,2.54-1.41v1.81c-.83.57-1.68,1.14-2.54,1.7S275.45,272.66,274.59,273.2Zm2.53,15.58c.86-.32,1.71-.65,2.54-1v1.69c-.83.43-1.68.85-2.54,1.26s-1.67.81-2.53,1.21v-2.24C275.45,289.41,276.29,289.1,277.12,288.78Zm0,3.63c.86-.41,1.71-.83,2.54-1.25V302h-5.07V293.6C275.45,293.21,276.29,292.81,277.12,292.41Zm6.57-23.56c.86-.62,1.71-1.24,2.54-1.87v16.29c-.83.4-1.68.79-2.54,1.18s-1.67.74-2.53,1.1V270.64Zm-2.53,0v-1.63c.86-.5,1.7-1,2.53-1.52s1.71-1.05,2.54-1.59v1c-.83.63-1.68,1.26-2.54,1.89S282,268.21,281.16,268.82Zm2.53,17.26c.86-.38,1.71-.77,2.54-1.16v1l-2.54,1.44c-.83.46-1.67.91-2.53,1.36v-1.52C282,286.82,282.86,286.46,283.69,286.08Zm0,3,2.54-1.41V302h-5.07V290.39C282,290,282.86,289.5,283.69,289Zm6.57-25.18,2.54-2.06v18.05c-.83.46-1.67.93-2.54,1.38s-1.67.88-2.53,1.31v-16.7C288.59,265.18,289.43,264.52,290.26,263.86Zm-2.53.1v-.85c.86-.57,1.7-1.14,2.53-1.71s1.71-1.19,2.54-1.79v.24l-2.54,2.1C289.43,262.61,288.59,263.29,287.73,264Zm2.53,19c.86-.45,1.71-.9,2.54-1.36v.24c-.83.55-1.67,1.1-2.54,1.65s-1.67,1-2.53,1.56v-.81C288.59,283.78,289.43,283.36,290.26,282.92Zm0,2.29c.86-.53,1.71-1.07,2.54-1.62V302h-5.07V286.75C288.59,286.24,289.43,285.73,290.26,285.21Zm4,16.76V282.59l.22-.15c.75-.51,1.43-1,2.15-1.56V302Z"/></g></g></svg>