<svg xmlns="http://www.w3.org/2000/svg" viewBox="0 0 535.31 534.91"><defs><style>.cls-1{font-size:6.21px;}.cls-1,.cls-48,.cls-52,.cls-76,.cls-80,.cls-84,.cls-86,.cls-89,.cls-91,.cls-93{fill:#476268;}.cls-1,.cls-10,.cls-14,.cls-16,.cls-24,.cls-27,.cls-40,.cls-48,.cls-52,.cls-55,.cls-56,.cls-63,.cls-76,.cls-79,.cls-80,.cls-84,.cls-86,.cls-89,.cls-9{font-family:Rubik-Light, Rubik;}.cls-2{letter-spacing:-0.12em;}.cls-3{letter-spacing:-0.08em;}.cls-4{letter-spacing:-0.03em;}.cls-5{fill:none;stroke-linecap:round;stroke-linejoin:round;}.cls-5,.cls-88,.cls-91{stroke:#40a798;}.cls-6,.cls-7,.cls-8{fill:#55b4c0;stroke:#fff;}.cls-6,.cls-7,.cls-8,.cls-88,.cls-91{stroke-miterlimit:10;}.cls-6{stroke-width:0.5px;}.cls-8{stroke-width:0.89px;}.cls-9{font-size:11.54px;}.cls-10,.cls-14,.cls-16,.cls-24,.cls-27,.cls-40,.cls-55,.cls-56,.cls-63,.cls-79,.cls-9{fill:#fff;}.cls-10{font-size:4.97px;}.cls-11{letter-spacing:-0.02em;}.cls-12{letter-spacing:-0.05em;}.cls-13{letter-spacing:-0.03em;}.cls-14,.cls-93{font-size:6.21px;}.cls-15{letter-spacing:-0.01em;}.cls-16,.cls-48{font-size:7.45px;}.cls-17{letter-spacing:-0.01em;}.cls-18{letter-spacing:-0.01em;}.cls-19{letter-spacing:-0.03em;}.cls-20{letter-spacing:-0.03em;}.cls-21{letter-spacing:-0.01em;}.cls-22{letter-spacing:-0.01em;}.cls-23{letter-spacing:-0.03em;}.cls-24,.cls-84{font-size:4.97px;}.cls-25{letter-spacing:-0.01em;}.cls-26{letter-spacing:-0.04em;}.cls-27{font-size:7.45px;}.cls-28{letter-spacing:-0.01em;}.cls-29{letter-spacing:-0.01em;}.cls-30{letter-spacing:0em;}.cls-31{letter-spacing:-0.03em;}.cls-32{letter-spacing:-0.03em;}.cls-33{letter-spacing:-0.01em;}.cls-34{letter-spacing:-0.01em;}.cls-35{letter-spacing:-0.03em;}.cls-36{letter-spacing:-0.07em;}.cls-37{letter-spacing:-0.03em;}.cls-38{letter-spacing:-0.08em;}.cls-39{letter-spacing:-0.11em;}.cls-40,.cls-52{font-size:8.69px;}.cls-41{letter-spacing:-0.03em;}.cls-42{letter-spacing:-0.01em;}.cls-43{letter-spacing:-0.02em;}.cls-44{letter-spacing:-0.03em;}.cls-45{letter-spacing:-0.01em;}.cls-46{letter-spacing:-0.02em;}.cls-47{letter-spacing:-0.05em;}.cls-48{letter-spacing:-0.01em;}.cls-49{letter-spacing:0em;}.cls-50{letter-spacing:-0.12em;}.cls-51{letter-spacing:-0.03em;}.cls-53{letter-spacing:-0.01em;}.cls-54{letter-spacing:-0.03em;}.cls-55{font-size:4.97px;}.cls-56{font-size:6.21px;}.cls-57{letter-spacing:-0.01em;}.cls-58{letter-spacing:0em;}.cls-59{letter-spacing:-0.07em;}.cls-60{letter-spacing:-0.01em;}.cls-61{letter-spacing:-0.02em;}.cls-62{letter-spacing:-0.03em;}.cls-63{font-size:3.72px;}.cls-64{letter-spacing:-0.01em;}.cls-65{letter-spacing:-0.01em;}.cls-66{letter-spacing:-0.01em;}.cls-67{letter-spacing:0em;}.cls-68{letter-spacing:-0.02em;}.cls-69{letter-spacing:0em;}.cls-70{letter-spacing:-0.01em;}.cls-71{letter-spacing:-0.08em;}.cls-72{letter-spacing:-0.03em;}.cls-73{letter-spacing:-0.01em;}.cls-74{letter-spacing:-0.02em;}.cls-75{letter-spacing:0em;}.cls-76,.cls-79{font-size:9.93px;}.cls-77{letter-spacing:-0.01em;}.cls-78{letter-spacing:0em;}.cls-80{font-size:4.97px;}.cls-81{letter-spacing:-0.01em;}.cls-82{letter-spacing:-0.01em;}.cls-83{fill:#40a798;}.cls-85{letter-spacing:-0.01em;}.cls-86{font-size:6.21px;}.cls-87{letter-spacing:-0.03em;}.cls-88{fill:#e57373;}.cls-89{font-size:7.45px;}.cls-90{letter-spacing:-0.02em;}.cls-92{letter-spacing:-0.01em;}.cls-93{font-family:Roboto-Medium, Roboto;}.cls-94{letter-spacing:-0.01em;}.cls-95{letter-spacing:0em;}</style></defs><title>Asset 2</title><g id="Layer_2" data-name="Layer 2"><g id="Layer_1-2" data-name="Layer 1"><text class="cls-1" transform="translate(224.18 533.27)">MA<tspan class="cls-2" x="8.88" y="0">L</tspan><tspan class="cls-3" x="11.51" y="0">T</tspan><tspan class="cls-4" x="14.5" y="0">A</tspan></text><path class="cls-5" d="M219.33,530a.75.75,0,0,1,0,1.49.75.75,0,1,1,0-1.49Z"/><line class="cls-5" x1="206.36" y1="530.41" x2="219.36" y2="530.41"/><path class="cls-6" d="M184.26,341c-2.06,1.15-3.95,3.63-3.66,8.89a24.78,24.78,0,0,1,6.9.77c-.49-5.72-2.73-7.49-3.31-8.67A1,1,0,0,1,184.26,341Z"/><path class="cls-7" d="M310,438.85c-.42-2.09,6.24-11.66,7.9-11.66,1.39,0,1.91-9.19,1.32-14a35.42,35.42,0,0,0-9.45-4.78s-13.86-.69-16.17-1.61-4.62,3-6.7,1.39a2.94,2.94,0,0,0-4.62,2.77c.46,2.3,4.85,3.7,4.85,7.16s8.78,8.55,8.55,10.4c-.16,1.3,5.27,4.82,8.51,9.57a60.9,60.9,0,0,1,5.37,4A10.55,10.55,0,0,0,310,438.85Z"/><path class="cls-6" d="M79.79,345.08c.93-.84,2.45.84,3.79,1a4.9,4.9,0,0,0,2.78-.75,8.44,8.44,0,0,0-2.44-.34c-2.19-.17-2.36-2.78-4.3-1.85a9.3,9.3,0,0,1-5.7.93c0,.74-.45,1.73-.58,2.71a10.61,10.61,0,0,1,1.31-.28C76,346.43,78.86,345.92,79.79,345.08Z"/><path class="cls-6" d="M80.84,355.51c1-.7,3-2.5,3.7-2.2s1.6-.3,1.6-.7-1.4-1.7-.3-2.09a1.84,1.84,0,0,0,1-1.68,2.38,2.38,0,0,0-1.13-.31c-.93.09-6.57.51-6.57.51a6.08,6.08,0,0,1-2.53,1c-.71-.07,0-1.2-2.28-.62,1.14,1.42,1.29,2.13,3.61,2.78,2.59.74-.2,2.07,1.93,3.4.19.13.35.25.51.38A4.21,4.21,0,0,1,80.84,355.51Z"/><path class="cls-7" d="M269,289.49c.7,1.86,1.4,8.35-.22,10.91s-.93,3.25.69,4.17,2.33,3.26,2.33,5.11,1.16,1.64,1.39,5.58,1.16,6.73,2.55,8.35c1.09,1.28.89,3.23.32,4.69a25.46,25.46,0,0,0,6.05,3.51c4.84,1.74,6.58,3.12,6.91,4.85s4.5,4.84,5.54,2.42,3.8-1,5.88-1,2.42,2.42,2.76,3.79,5.19.7,6.92,1.73,2.42,4.85,4.84,6.23,4.49-1.73,6.23-.69,6.22,2.07,9,1,4.49,1,7.95.7,7.95,1,9,2.07c.55.54,3.47,1.08,6.14,1.48.68-1.41-.65-5.79-.44-6.87s8.35-8.35,9.75-10,3.48-1.62,4.64-3.71S363.94,325,363,323.61s-1.39-7-.69-9.28-3.49-3.72-3.49-5.34,3.95-4.42,6-5.34,1.4-7.43-.46-9.06a7.15,7.15,0,0,1-1.63-7.89c1.16-3.24-7-5.8-8.13-5.8-.19,0-.3-.21-.38-.48-7.25,1.34-25.81-.59-27.22-1.15-.91-.37-3.27-1.21-5.29-1.93a6.45,6.45,0,0,1-5.72,2.94c-4.48,0-4.8-4.49-5-6.5s-18.11,1.71-22.91,6.5-15.94,2.94-16.24,5.57c-.23,1.91-1.9,2.9-3,2.37A2.56,2.56,0,0,0,269,289.49Z"/><path class="cls-7" d="M295.69,428.55c.23-1.85-8.55-6.94-8.55-10.4s-4.39-4.86-4.85-7.16a2.94,2.94,0,0,1,4.62-2.77c2.08,1.61,4.39-2.32,6.7-1.39s16.17,1.61,16.17,1.61a35.42,35.42,0,0,1,9.45,4.78,8.21,8.21,0,0,0-.49-2.25c-1.24-2.92,0-6.24-3.32-7.49-1.72-.64-2.43-3.6-2.73-6.33-1.57.48-2.9.87-3.62,1.05-2.76.69-8.64.35-10.72-2.42-1.54-2.06-6.35-5.08-8.7-6.49-1,.85-4.65,4-6.26,4.2-1.86.23-.7,5.11-2.56,5.11s-3.25,3.24-3.71,4.64-4.64-.93-6.5-.24a53.51,53.51,0,0,1-7.38,1.43c.33,2.11.2,4.45,1.89,4.45,2.79,0,7.9-.3,8.05,3.41S280,424.21,282.46,427s8.05,2.17,8.35,4.49,4.34,4.48,9,4.8a10.44,10.44,0,0,1,4.4,1.83C301,433.37,295.53,429.85,295.69,428.55Z"/><path class="cls-7" d="M330.05,473.11c2.32-.46.93-2.32,2.55-3.94a17.83,17.83,0,0,0,3.72-6,.48.48,0,0,1,.22-.29c-3.15-2.36-5.35-4.06-6.05-6.5s0-7.32,1.13-10.86c-1.8-1.28-7.33-5.1-9.07-5.1s-4.36,3.82-5,7.49c4.06,2.17,5.66,3.71,2.85,6.52s-3.56,12.85-.31,15.47c3.09,2.51,4,7.48,7,8.9C327.88,476.26,328.52,473.43,330.05,473.11Z"/><path class="cls-7" d="M285.9,358.79c-2.76-3.11-9.67-3.11-9.67-3.11a20.42,20.42,0,0,1-1.73,4.84c-.87,1.44-5.9,1.43-9.11.56-.92,1.19-5.1,2.12-5.68,3.85-.7,2.1-5.8.94-4.17,6.5s-2.55,3.72-4.18,3-8.83.24-10.68,2.09a5,5,0,0,1-6,.47c-1.62-.93-4.87-1.4-6.26.92s-3.95-1.85-6-1.62-1.15,4.64-1.15,5.57,3.25,3.71,5.33,2.79,4.65.23,6.51,1.39,5.34-.93,6.49-2.09,7.67-1.17,8.36-1.17.93,3.72,2.1,4.42,5.57,1.16,9.51,1.39,9.75,2.09,11.61,2.09,4.87-3.25,9-3.25,6.51-2.55,7.21-2.32l0,0c.3-1.29.78-2.33,1.69-2.46,1.69-.24.48-3.15,1.69-4.6s-1-4.36,1.22-4.12,4.59.49,4.59-2.66a3.9,3.9,0,0,1,1.41-2.78,38,38,0,0,1-4.12-8.72S288.68,361.9,285.9,358.79Z"/><path class="cls-7" d="M353,367.49a7.55,7.55,0,0,1-2.46-1.5c-2.91-.65-5.72-1.5-6.58-2.36-1.73-1.73-8.64-2.77-9.68-3.11s-7.61,6.22-9.68,6.22-11.07,1-11.07,3.45-11.05,2.78-14.17,0a9.8,9.8,0,0,1-1.41-1.65,3.9,3.9,0,0,0-1.41,2.78c0,3.15-2.42,2.91-4.59,2.66s0,2.67-1.22,4.12,0,4.36-1.69,4.6c-.91.13-1.39,1.17-1.69,2.46.72.36,2.51,3.92,2.51,3.92l-.24.21c2.35,1.41,7.16,4.43,8.7,6.49,2.08,2.77,8,3.11,10.72,2.42s14.53-4.49,14.53-4.49a37,37,0,0,0,4.49,1.38c.41.09,1.51.26,2.94.48.85-.88,3.45-1.62,6.22-4.4,3.25-3.25,8.12-14.86,9.51-15.79s5.12-3,7-4.41S355.13,368.19,353,367.49Z"/><path class="cls-7" d="M310.11,343.57c-1.73-1-6.57-.34-6.92-1.73s-.68-3.79-2.76-3.79-4.84-1.38-5.88,1-5.18-.69-5.54-2.42-2.07-3.11-6.91-4.85a25.46,25.46,0,0,1-6.05-3.51,5.74,5.74,0,0,1-.55,1.11c-.93,1.4-4.18-1.15-5.57.24s-6,1.62-8.59,4-7.9,3.48-10.91,4.17-.46,3.49.69,5.58,1.17,7.19,3.49,8.82,10,6.5,10.91,8.12a.68.68,0,0,1-.13.79c3.21.87,8.24.88,9.11-.56a20.42,20.42,0,0,0,1.73-4.84s6.91,0,9.67,3.11,8,1,8,1,.29.89.76,2.12c.74-1.71,1.72-3.21,2.91-3.39,2.91-.41,7.07-.83,10-5a18.45,18.45,0,0,1,6.07-5C312.18,346.86,311.45,344.38,310.11,343.57Z"/><path class="cls-6" d="M338.12,350.84c-3.46.34-5.19-1.73-7.95-.7s-7.27,0-9-1-3.81,2.07-6.23.69a5,5,0,0,1-1.37-1.23,18.45,18.45,0,0,0-6.07,5c-2.91,4.16-7.07,4.58-10,5-1.19.18-2.17,1.68-2.91,3.39.95,2.45,2.69,6.41,4.77,8.25,3.12,2.78,14.17,2.43,14.17,0s9-3.45,11.07-3.45,8.65-6.58,9.68-6.22,7.95,1.38,9.68,3.11c.86.86,3.67,1.71,6.58,2.36-1.22-1.08-2.19-2.47-2.19-3.61,0-1.85,3.5-6.73,4.65-7.66a1.17,1.17,0,0,0,.21-.33c-2.67-.4-5.59-.94-6.14-1.48C346.07,351.87,341.56,350.49,338.12,350.84Z"/><path class="cls-7" d="M45.06,499.27c4.13-.75-1.14-4.14-2.27-5.27s.37-5.65,2.64-5.65,0-2.63-3-5.65,0-4.14,2.65-4.14-.76-4.52,1.87-7.16-.76-7.53-.76-9.79,3.77-3,6.79-6-2.64-1.89-2.64-4.14-3.77-3-6.4-1.13-1.89,0-4.14,0-6.41.75-6.41-1.51-1.88-2.64-3.76-.38a4.17,4.17,0,0,1-2.79,1.18c-.27,2.95-.58,5.71.29,7.1,2,3.25-2.49,20.43-6.51,25.07s-.14,5.89,4,9.14,1.4,15,1.4,17.79,3.72,2,8.05,2c2.58,0,5.49-1.15,8.36-1.65a7.82,7.82,0,0,1-1.52-3.41C40.91,503.41,40.91,500,45.06,499.27Z"/><path class="cls-7" d="M166.66,323c1.89-1.89,5.2-.94,7.1.95s4.73,2.36,7.57,5.2a20.69,20.69,0,0,0,2.28,2c.27-2,.32-6,1.2-8s-.93-4.95.62-4.95,5.88,0,5.88-2.79,1.24-1.85,2.17-3.4-2.79-4.65-3.41-5.58,2.78-1.23,5.27-4.94c.89-1.35.52-4.11-.31-7.09-.41,1.09-1.24,1.89-2.64,1.05-2.32-1.4-5.87-.62-10.52.31s-6,5.42-4.34,7.27-4.48,2.79-4.94.32-5.11-.78-4.81,2.47-5.11,4.49-4.79,8.51-5,7.74-8.36,9.75L153,325a12.54,12.54,0,0,0,3.73,1.31C159.56,326.35,164.77,324.94,166.66,323Z"/><path class="cls-7" d="M147.36,329.41c.23,1.63,2.78,5.58,3.71,3.95s3.25,2.09,5.34,3.25,6.26,2.56,6.5,3.95.93,4.41,3,3.48,4.64-4.18,4.64-2.32.69,5.34,3,4.87,3,4,5.35,3.48a13.09,13.09,0,0,1,1.67-.14c-.29-5.26,1.6-7.74,3.66-8.89.48-.93,1.87-1.9,2.1-3,.31-1.55-3.1-4.65-2.79-6.5,0-.1,0-.23,0-.34a20.69,20.69,0,0,1-2.28-2c-2.84-2.84-5.68-3.3-7.57-5.2s-5.21-2.84-7.1-.95-7.1,3.31-9.94,3.31A12.54,12.54,0,0,1,153,325a24.07,24.07,0,0,1-7,3C146.48,328.68,147.2,328.34,147.36,329.41Z"/><path class="cls-7" d="M415.4,405.79c-2.16-.31-4.95-1.23-4-2.47l.28-.36c-2.9-2.34-3.67-9.93-1.82-11.79,2.36-2.36-3.79-11.35-6.62-14.66-1.33-1.56-4.21-6.73-6.9-11.8-2.46.8-4.63,1.69-5.06,2.4-.92,1.54-4,3.1-5.88,3.1s-3.71-.94-5.26.61-3.71,2.17-4.65,1.24-4-1.85-6.19-1.85-9-1.87-10.52-1.87a33.81,33.81,0,0,0-4,.35c.35.67.08,1.47-1,2.28-1.85,1.39-5.57,3.48-7,4.41s-6.26,12.54-9.51,15.79-6.27,3.71-6.51,4.87,3.72,4.18,3.72,6,.92,3.71,3.48,3.71-.23,6,1.39,6.5,11.61,1.16,11.61,3.49c0,1.8,1.1,3.32.62,4.58,2.81.46,4.87,4.28,6,4,1.24-.31,9.6,1.54,11.14,1.24s8.67,0,11.15.3,5.26-.93,7.42-3.09,9.92-2.48,12.39-2.17,7.43.93,8.36,2.48c.49.81,3.4,2,6.35,3,.35-1.53-.1-3.53,0-5.49.15-3.25,2-8.2,5.26-8.51s5.88-.31,5.42-5.72c0-.19,0-.33,0-.5-1.64-1.41-3.18-2.6-3.69-2.6C420.05,403.32,416.33,405.92,415.4,405.79Z"/><path class="cls-7" d="M419.74,373a8.22,8.22,0,0,0-7.43-5.58c-2.17,0-5.89-4.94-8.36-4.64a53.83,53.83,0,0,0-7.63,1.94c2.69,5.07,5.57,10.24,6.9,11.8,2.83,3.31,9,12.3,6.62,14.66-1.85,1.86-1.08,9.45,1.82,11.79,1.34-1.75,5.91-7.5,5.91-9.24s.31-5.57,4-4.64,7.12,2.48,7.12,1.24-.93-5.26-2.48-6.82S421,377,419.74,373Z"/><path class="cls-7" d="M399.62,420.65c-2.47-.31-10.22,0-12.39,2.17s-5,3.4-7.42,3.09-9.6-.62-11.15-.3-9.9-1.55-11.14-1.24c-1.09.27-3.15-3.55-6-4a2.08,2.08,0,0,1-.85,1c-2.09,1.4-2.33,5.1,0,7.19s5.34,6.73,3.25,6.73-3.72,2.79-3.48,4.18-.7,4.41,0,5.11,5.57,5.34,5.8,6.73c.2,1.23,2.2,1.86,2.05,2.94,3.9-.3,12.17-.77,14.05.16,2.47,1.24,11.15,1.86,11.15,1.86,2.46,0,4.63-.93,4-2.48-.53-1.3,2.7-2.17,5-2.41-.4-1.43-.68-2.6-.07-2.86,1.15-.46,7.89-1.38,10.67,0,1.41.72,3,0,4.23-.78-.37-1.3-.73-2.33-1.44-2.46-1.71-.31-4.33-7.43-2.17-7.9s5-7.89,8.36-9a3,3,0,0,0,2.18-2.25c-2.95-1-5.86-2.2-6.35-3C407.05,421.58,402.09,421,399.62,420.65Z"/><path class="cls-7" d="M336.54,462.84h0a1.5,1.5,0,0,1,.4-.17l.09,0a3.12,3.12,0,0,1,.58-.08h.09c.9-.08,2.11,0,3.36-.07h.25l.83-.06.32,0a7,7,0,0,0,1.05-.19c2.79-.69,3.49-3.71,4.87-3s8.83-3.1,9.76-4.49a1,1,0,0,0,.19-.47c.15-1.08-1.85-1.71-2.05-2.94-.23-1.39-5.1-6-5.8-6.73a1.16,1.16,0,0,1-.24-.72s0-.06,0-.08a7.58,7.58,0,0,1,0-1.14c-7.26,1.06-18,3.3-18,3.3l-.62-.44c-1.11,3.54-1.84,8.39-1.13,10.86S333.39,460.48,336.54,462.84Z"/><path class="cls-7" d="M531.78,355.18c0-.92,3.25-2.55,3-4.4s-3-2.1-6-3.72-6-.93-8.83-2.32-8.59-.47-8.59-1.39-3.71-4-4.64-5.58-3.94-.69-5.8.47-3.49,1.62-5.34.47-3.49-3-5.11-2.33-4.64.23-3.94-2.09-3-7.42-4.65-8.12-6.5.46-7.66-1.86-3.25-4.18-2.32-5.8-.23-6-1.39-7.9-7-1.62-8.59-.93-5.34-.69-7,.24-2.55,2.55-4.87,2.55c-1.3,0-2.16-.17-2.86-1.2a23.67,23.67,0,0,1-6.73,1.36s-6.2,4.95-6.2,6.81-.3,4.95-1.86,3.41-8-1.56-9.58-.63-4-3.71-6.82-2.16-6.5-2.17-6.81-.62-4.33.31-7.12-.93-7.74.62-9.59-1.55-13.93-2.17-17.95-2.17-5,2.17-6.82,4c-1.67,1.68-3.62,1.33-5.6,1.25a9.67,9.67,0,0,0,.88,3.54c.93,1.4,5.34,8.13,4.18,10.22s-3.25,2.09-4.64,3.71-9.52,8.83-9.75,10,1.39,6.27.23,7.2-4.65,5.81-4.65,7.66,2.56,4.41,4.65,5.11a2.86,2.86,0,0,1,1.7,1.2,33.81,33.81,0,0,1,4-.35c1.55,0,8.36,1.87,10.52,1.87s5.27.92,6.19,1.85,3.1.3,4.65-1.24,3.41-.61,5.26-.61,5-1.56,5.88-3.1,10.22-4,12.69-4.34,6.19,4.64,8.36,4.64a8.22,8.22,0,0,1,7.43,5.58c1.24,4,4.95,9,6.49,10.51s2.48,5.58,2.48,6.82-3.4-.31-7.12-1.24-4,2.79-4,4.64-5.26,8.36-6.19,9.6,1.86,2.16,4,2.47c.93.13,4.65-2.47,5.88-2.47.51,0,2.05,1.19,3.69,2.6-.35-4.84.65-4.57,5-7.86,4.49-3.4,4.95-9.75,9-10.53s5.73-2.63,11.61-1.7-2.93,4.64,1.08,6.81c2.65,1.42,8.88.72,13,.94a46.49,46.49,0,0,1,16.29.22c2.72-2.45,8-5.78,11.38-6.11a39.07,39.07,0,0,0,13.32-4,41.2,41.2,0,0,1,8.51-2.4c-.51-2.19-1.16-4.76.23-5,1.62-.23,6.5-5.57,8.13-5.57s8.58,1.39,8.58.23,2.33-5.1,1.86-6.27-2.78-2.78-2.32-3.94,3.71-1.16,3.71-2.56S531.78,356.11,531.78,355.18Z"/><path class="cls-7" d="M360.16,250.66c2.84,0,9.47,1.41,13.25,0s3.78,2.84,6.15,2.36,7.1,2.84,9.94,5.21a37.61,37.61,0,0,0,5.3,3.42,7.47,7.47,0,0,1,2-2.26c2.48-1.86,4.95-.93,7.12-.93s2.47-2.48,4-3.71a8.05,8.05,0,0,1,3.25-1.31c-.83-1.71-.87-5.06-2.25-6.44-1.63-1.62-4-4.41-3.25-6a5.2,5.2,0,0,0-1.17-5.81,7.55,7.55,0,0,1-1.76-2.67c-3.78-.48-8.86-1-10-.65-1.86.62-9.28-5.26-10.53-6.19-.81-.61-6.32-.29-11.27.17-2.86,3.17-.8,5.49-.95,10.35s-5.58,4-8.51,4-7.75-8.82-9.29-10.84-6.51,2.48-10.06,4.64-1.7,6.35-4.18,8.36-4,5.42-1.55,9.91c.1.18.17.37.26.55,3.1-.24,6.39-.81,8.29-2.16C348.34,248.29,357.33,250.66,360.16,250.66Z"/><path class="cls-7" d="M342.58,267.66c1.17,1.64,4.88,3,6.27,2.33s5.8,1.62,5.8,3.48-1.15,7.43,0,7.43,7.75,2.08,8.2,4.87a53.13,53.13,0,0,1,7.68.55c2.48.62,4-.93,5.25-2.48s5.57-2.16,6.81-2.16,1.24-3.41,1.55-5,3.41-4.33,5.26-5S391,269,392.81,269s1.54-2.49,1.24-4a4.71,4.71,0,0,1,.75-3.3,37.61,37.61,0,0,1-5.3-3.42c-2.84-2.37-7.58-5.68-9.94-5.21s-2.37-3.78-6.15-2.36-10.41,0-13.25,0-11.82-2.37-15.14,0c-1.9,1.35-5.19,1.92-8.29,2.16,2.12,4.32,1.34,8.7-1,11.37-1.69,1.9-.71,2.15.53,2.9C338.77,266.85,341.65,266.36,342.58,267.66Z"/><path class="cls-6" d="M226.51,384.67c-2.08.92-5.33-1.87-5.33-2.79,0-.64-.43-3,0-4.4a40.29,40.29,0,0,0-6-2.63c-3.1-.93-4.64-.93-7.11.3-1.59.79-5.94.57-8.89.31-.26.92-.67,1.55-1.41,1.55a6.17,6.17,0,0,0-5.34,4.41c-.46,2.32-5.34,4.17-6.74,8.35s-.69,6,1.4,3.49,4.65-1.63,4.65.46,2.78,2.32,1.85,5.11a1.22,1.22,0,0,1,0,.17c3.18-.28,7.59-.64,8.93-.64,2.17,0,4.34-6.8,5.26-7.43s3.41,5,5.89,7.13,2.78-1.86,2.78-3.72,2.17-2.47,3.72-2.16,5,.93,5-1.25,1.86-1.23,3.09-1.23,1.56-2.48,1.56-2.48l2-1.88C230.07,384.51,228.15,383.94,226.51,384.67Z"/><path class="cls-7" d="M195.34,301.49c-2.49,3.71-5.88,4-5.27,4.94s4.34,4,3.41,5.58-2.17.62-2.17,3.4-4.34,2.79-5.88,2.79.3,2.79-.62,4.95-.93,6.5-1.24,8.36,3.1,4.95,2.79,6.5-2.79,2.78-2.17,4,2.82,3,3.31,8.67a4.56,4.56,0,0,1,2.33,1.24,8.28,8.28,0,0,0,6.73,3.24c3,0,4.19,2.1,5.58,1.86s5.11.94,2.09,3.49-3.48,5.57-4.18,8.58c-.45,2-.42,4.67-.91,6.35,3,.26,7.3.48,8.89-.31,2.47-1.23,4-1.23,7.11-.3a40.29,40.29,0,0,1,6,2.63c.19-.62.52-1.1,1.15-1.17,2.1-.23,4.65,3.94,6,1.62s4.64-1.85,6.26-.92a5,5,0,0,0,6-.47c1.85-1.85,9-2.78,10.68-2.09s5.8,2.56,4.18-3,3.47-4.4,4.17-6.5,6.73-3,5.81-4.64-8.59-6.5-10.91-8.12-2.32-6.74-3.49-8.82-3.71-4.88-.69-5.58,8.35-1.85,10.91-4.17,7.19-2.56,8.59-4,4.64,1.16,5.57-.24,1.62-4.18.23-5.8-2.32-4.41-2.55-8.35-1.39-3.72-1.39-5.58-.7-4.17-2.33-5.11-2.32-1.62-.69-4.17.92-9,.22-10.91a2.56,2.56,0,0,1,0-1.27,1.65,1.65,0,0,1-.88-1.28c-.47-2.48-2.16-3.41-6.19-3.41s2.47-4,.93-6-5.57,3.72-9.28,2.48-8.51,4.34-11.76,6.81-7.9-.46-5.42-4,0-3.24-3.72-1.85-8.2-.31-7.74-3.72a3.63,3.63,0,0,0-.61-2.41,10.34,10.34,0,0,1-3.87.09c-1.67-.55-5.44-.85-9.56-.93,1.23,1.8,2.57,3.56,1.81,5-1.39,2.64.79,5.11,2.79,9s-4.33,1.71-4.49,4.18-5.87-.15-7.73-1.08-8-.31-7.89,1.24a5.33,5.33,0,0,1-.31,2.2C195.86,297.38,196.23,300.14,195.34,301.49Z"/><path class="cls-7" d="M429.64,166.85c2.48-5.57,13.61-9.88,15.48-14.86.92-2.49,1.24-3.72-2.79-8.36s-13-7.74-13.31-10.21,6.82-2.79,6.5-5.89-4-3.09-5.57-5.56,1.86-4,1.55-5.27-4.95-1.85-5.27-3.41,3.11-1.23,2.48-3.09-3.71-5.27-1.54-8,6.81,0,3.4-6.18-8.67-13.93-9.9-15.8,1.23-5,3.09-6.18,6.5-5.88,6.5-7.74-5.88-6.82-7.42-7.74-5-.62-6.5-3.72-3.1-4-1.56-5.88,1.56-3.71,1.56-5.57,3.4-.31,4-3.09a8.44,8.44,0,0,1,2.32-3.82,46.91,46.91,0,0,0,0-5.83c-.5-3-9-4-10.94-7.46s-7-2-8.46,0-10.44-.49-10.44,2.49-6.46,3.48-6.46,7,3,9.45-2,9-1.5,2-4.48,6-3-2.49-6-1.5-6.46-3-8-.5-6.46.5-11.43-.49-7.46-8-11.44-8.45c-2.64-.33-5.46,1.78-6.94,5.1,3.85,2.49,6.38,6,11.41,8.33C353,52.48,363,55.46,362.5,59s-2,8.45.49,9.94-.49,8,2.49,9.45,2,9-.5,9,.5,4,2,5.46c.68.69,1.23,2.71,1.48,5.17,3.05.74,5.77,2.28,8.42,3.46,4.18,1.86,3.55,4.79,3.71,8.05s.3,5.1-1.85,3.71-4.49,0-5.73,4.65-7.12,10.21-10.68,10.52-3.25,4-6.19,4.79-5.73,2.48-5.57,5.73-4.33,3.56-7.28,3.56-2.32,5.26-4.64,6.65-1.86,3.25.31,6,.31,5.26,1.08,7.27,4.18,6.66,1.86,11.76-4.8,11.46-2.79,10.84,6.66,4.18,9.75,3.87,3.41,4.33,6.35,3.4,2.94,2.78,11.45,2.48,25.69-7.42,32.5-7.42a39,39,0,0,0,9.39-1.07,42.91,42.91,0,0,1,5-6.36C417.88,175.51,427.17,172.42,429.64,166.85Z"/><path class="cls-7" d="M202.14,357c-1.39.24-2.55-1.86-5.58-1.86a8.28,8.28,0,0,1-6.73-3.24c-1.39-1.87-8.58-2.33-10.9-1.87s-3-3.94-5.35-3.48-3-3-3-4.87-2.55,1.39-4.64,2.32-2.79-2.09-3-3.48-4.41-2.79-6.5-3.95-4.41-4.87-5.34-3.25-3.48-2.32-3.71-3.95c-.16-1.07-.88-.73-1.36-1.38a9.5,9.5,0,0,1-2.36.23c-3.72-.16-7,2.78-6.34,9s-4.5,6.8-10.84,7.27-4.17,5.42-6.8,7.43-11.92-1.08-13.16-4.48-9.59,0-6,4,3.4,9.6,1.4,11.15-6.36-2.48-9.14-.47-2.94-1.86-6.34-3.08-4.8,1.53-10.21,1.07-8.52,2.63-6.51,4.95-.31,4.48,1.24,6.51,8.67,1.69,13.93,4.48,6.49.46,9.13,2.48,3.25.77,3.41,4.64,3.09,7.58,8.2,9,1.24,4.8,2.79,8.2-2.32,8.35-1.55,12.54-2.48,17.64-5,18.87a2,2,0,0,1-.62.12c2.32,1.16,4.76,2.17,6,3,2.26,1.51,7.15,3,10.17,4.89s8.28,1.52,8.28-.75,3-.74,4.9,1.13,9,2.26,12.42,3c2.86.63,7,.24,10.76.31a23.2,23.2,0,0,0-.63-2.68c-1.86-6,3.55-9.6,8.65-10.38S178,432.72,181,434.58s7,1.39,12.07-4a13.75,13.75,0,0,1,6.55-4.27,15.5,15.5,0,0,1,1.18-3.54c.7-1.87-2.56-1.4-4.88-1.64a3.16,3.16,0,0,1-2.32-5.11c1.63-2.55-1.39-2.78-3-5.33s.69-1.86,2.08-2.55,3.25-3.49,2.09-4.18-2.09-2.32-1.16-5.11-1.85-3-1.85-5.11-2.56-3-4.65-.46-2.78.7-1.4-3.49,6.28-6,6.74-8.35a6.17,6.17,0,0,1,5.34-4.41c2.09,0,1.62-4.88,2.32-7.9s1.16-6,4.18-8.58S203.53,356.81,202.14,357Zm16.56,78.78c-1.7-.16-2.17,2.93-6.5,5.57s0,14.52,4.33,13.93C221,454.7,220.4,436,218.7,435.82Z"/><path class="cls-7" d="M153.72,443.46c-3.73-.07-7.9.32-10.76-.31-3.38-.75-10.54-1.12-12.42-3s-4.9-3.38-4.9-1.13-5.27,2.64-8.28.75-7.91-3.38-10.17-4.89c-1.19-.79-3.63-1.8-6-3-3.14.62-12.16-2.7-18.11-2-6.35.77-26.62-.93-34.52-.31s-8.36-3.25-12.69-3.25-2.47,5.25-8.66,5.41-6.8,4-2.32,7.59c2.55,2,2.24,6.31,1.88,10.23a4.17,4.17,0,0,0,2.79-1.18c1.88-2.26,3.76-1.89,3.76.38s4.14,1.51,6.41,1.51,1.5,1.89,4.14,0,6.4-1.13,6.4,1.13S56,452.57,53,455.59s-6.79,3.76-6.79,6,3.39,7.15.76,9.79.75,7.16-1.87,7.16-5.66,1.12-2.65,4.14,5.27,5.65,3,5.65-3.77,4.52-2.64,5.65,6.4,4.52,2.27,5.27-4.15,4.14-4.15,6.4a7.82,7.82,0,0,0,1.52,3.41,9.15,9.15,0,0,1,5.56.41c4.34,2,6.85,12.8,12.69,12.07,2.49-.31,1.25-2.17,2.49-3.41s3.55-.3,6-.3,3.72-3.57,9.59-3.72,9.6-.62,13.31-.46,6.66-1.09,7.58-3.72,4-4.95,8.21-5.57,3.56-5,3.86-7.43,7.29-6.19,7.74-8.05-4-9,.16-15.32,8.67-6.65,8.67-10.21c0-3.27,4.33-4.49,9.59-5.12s7-4.17,11.46-6C153.13,450.66,154.47,447.88,153.72,443.46Z"/><path class="cls-8" d="M145.28,480.1c.79,5,9.32-1.79,7.41-3.19C148.78,474.08,144.5,475.09,145.28,480.1Z"/><path class="cls-7" d="M254.74,402.16c2.5-1,5.31-1.41,6.68-.85,1.21.48,1.6,1.76,1.82,3.12a53.51,53.51,0,0,0,7.38-1.43c1.86-.69,6,1.63,6.5.24s1.86-4.64,3.71-4.64.7-4.88,2.56-5.11,6.5-4.41,6.5-4.41-1.86-3.71-2.55-3.95-3,2.32-7.21,2.32-7.18,3.25-9,3.25-7.66-1.85-11.61-2.09c-1.39-.07-2.84-.19-4.19-.33A90.58,90.58,0,0,0,254.74,402.16Z"/><path class="cls-7" d="M392.57,451.36c-2.32.24-5.55,1.11-5,2.41.61,1.55-1.56,2.48-4,2.48,0,0-8.68-.62-11.15-1.86-1.88-.93-10.15-.46-14.05-.16a1,1,0,0,1-.19.47c-.93,1.39-8.36,5.18-9.76,4.49s-2.08,2.32-4.87,3-7-.23-7.19.93a17.83,17.83,0,0,1-3.72,6c-1.62,1.62-.23,3.48-2.55,3.94-1.53.32-2.17,3.15-3,5.65a2.51,2.51,0,0,0,.46.24,8.73,8.73,0,0,1,5.57,9c-.47,3.87,4.95,5.27,7.43,2.48s9.44,1.55,9.44,3.41-7.12-2-11.15.93,3.1,5.72,2.17,8.82,1.86,7.42,5.42,7.27,7.58,5.73,9.75,4.64-2.63-9.28-1.86-10.52,5.1,2.17,7.27-.31-1.54-4.33-4.79-4.18-.16-4.33,3.71-2,5.73-.62,7.58-.93,2.32-7-3.41-8.51-4.95,4.18-8.66.3,3.4-2.32,3.4-5.57-5.72-7.89-8.51-11.76,3.88-5.72,5.42-2.93,5.72,2.32,8.35,1.23-2.78-6,2-7.89,4.81,1.39,6.36,2,2.94-3.87,7.88-3.87c2.58,0,4.87,1.71,7.08,3.36,1.34-1.48,2.44-2.34,2.44-3.59,0-1.63,3-2.33,3-4.88A17.31,17.31,0,0,0,392.57,451.36Zm-8.74,78.09c-2.48-1.38-13.62.93-16.55-1.85s-8.95,2.19-6.36,2.63c3.71.61,9.29,3.87,15.33,4s14.23-2.78,14.09-4.33S386.31,530.84,383.83,529.45Z"/><path class="cls-7" d="M51.69,285.94a20.78,20.78,0,0,1-3.47-3.14c-4-4.68-5.62-.94-6.07,1.87s-4.21-.93-6.56-1.4.7-4.91,2.35-6.09c1.09-.77,2.17-2.94,2.84-6a3.61,3.61,0,0,1-1.29-.22c-4.33-1.7-10.38-1.7-10.53,2.16s4.8,2.48,4.95,4.95S29,280,25.4,282.45s-7.43-1.7-11.14.15,4,4,1.23,7.9.16,3.71,4.8,7.43-2.78,4.64-2.78,8.82-5.73,4-7,6.81,5,8.35,10.37,8.35c3.87,0,12.85-2.47,18.11-7.42s8-.16,12.84-2.63,1.86-20.58,0-24.3A2,2,0,0,1,51.69,285.94Z"/><path class="cls-7" d="M53.88,269.14c-3.91-3.78-9,2.15-13.1,2.08-.67,3-1.75,5.19-2.84,6-1.65,1.18-4.68,5.62-2.35,6.09s6.08,4.21,6.56,1.4,2.1-6.55,6.07-1.87a20.78,20.78,0,0,0,3.47,3.14c.64-2.12,5.53-2.48,8.06-5C62.85,277.8,58.22,273.32,53.88,269.14Zm84.65,38.38c.32-4.65-9.9-7.89-11-5.42s-3.4,2.17-5.11-.61,1.56-5.42-.14-5.73-3.87-4.18-3.41-5.73-2.63-11.45-7.89-12.69-6-8.66-7-12.69-4.35-1.86-7-5.26-7.12-1.7-9.45-1.55,0-4.34,3.71-6.8,8.06-15.64,8.06-18.27-16.25-2.48-19.35-.93-6.19-2.32-3.56-3.41,8.2-6.5,7.89-8.66,3.88-4.18,1.55-6.19-2.63,2.63-4.64,4.18-6.5,1.09-11.3.15-6.65,5.88-6.5,8.82-5.57,4.65-4.65,7.12-1.07,4.33-2.62,2.94S53,232,49.85,234.47s3.56,5.73,7.58,6.2-3.09,3.4-3.86,7.72,5.25,2.49,5.57,5.58-8.67,3.56-8.67,6.5,5.11-1.39,7.43-2.63-1.23,7.27,4.34,6.35,4-8.51,6-8.21-.92,4,.78,7.28-4,8.2-3.72,10.52,11.45,2.32,15-1.39,5.26.31,2.79,3.1-1.39,5.41,1.71,6.5,4.18,1.39,2.78,3.86-.16,7.12-.93,9.44-10.37,2-10.68.47-4.34-.47-3.24,1.7S69.35,302,69.66,304s6,1.55,6.19,4-4.18,5.41-10,7.11,1.23,6.35,4,4.34S72,320.82,76,320.82s6.51,3.26,11,1.56,4.33,0,.93,2.63-8.51-.15-11.61,1.55S60.63,340.06,63,343c1.4,1.69,3.25-2.48,7.73-4.34s5.26,1.23,7.75,1.54,2.63-5.1,4.64-4.64,3.87-1.7,7.58-1.08a9.75,9.75,0,0,0,8.21-2.32c1.85-1.54,6.8,3.09,8.36,2s8.35-2.33,11.76-2.17,12.22-3.87,14.54-6-1.39-2.62-4.49-2.16-2.48-3.1.78-6.19S138.22,312.16,138.53,307.52Zm-93-77.69c4.18-.15,9-7.27,7-9.29S42.41,229.94,45.52,229.83Zm59.9-33.59c2.63-2.62,5.72-12.68,1.7-11.6S104.27,197.39,105.42,196.24Z"/><path class="cls-7" d="M53.88,269.14c-3.91-3.78-9,2.15-13.1,2.08-.67,3-1.75,5.19-2.84,6-1.65,1.18-4.68,5.62-2.35,6.09s6.08,4.21,6.56,1.4,2.1-6.55,6.07-1.87a20.78,20.78,0,0,0,3.47,3.14c.64-2.12,5.53-2.48,8.06-5C62.85,277.8,58.22,273.32,53.88,269.14Zm84.65,38.38c.32-4.65-9.9-7.89-11-5.42s-3.4,2.17-5.11-.61,1.56-5.42-.14-5.73-3.87-4.18-3.41-5.73-2.63-11.45-7.89-12.69-6-8.66-7-12.69-4.35-1.86-7-5.26-7.12-1.7-9.45-1.55,0-4.34,3.71-6.8,8.06-15.64,8.06-18.27-16.25-2.48-19.35-.93-6.19-2.32-3.56-3.41,8.2-6.5,7.89-8.66,3.88-4.18,1.55-6.19-2.63,2.63-4.64,4.18-6.5,1.09-11.3.15-6.65,5.88-6.5,8.82-5.57,4.65-4.65,7.12-1.07,4.33-2.62,2.94S53,232,49.85,234.47s3.56,5.73,7.58,6.2-3.09,3.4-3.86,7.72,5.25,2.49,5.57,5.58-8.67,3.56-8.67,6.5,5.11-1.39,7.43-2.63-1.23,7.27,4.34,6.35,4-8.51,6-8.21-.92,4,.78,7.28-4,8.2-3.72,10.52,11.45,2.32,15-1.39,5.26.31,2.79,3.1-1.39,5.41,1.71,6.5,4.18,1.39,2.78,3.86-.16,7.12-.93,9.44-10.37,2-10.68.47-4.34-.47-3.24,1.7S69.35,302,69.66,304s6,1.55,6.19,4-4.18,5.41-10,7.11,1.23,6.35,4,4.34S72,320.82,76,320.82s6.51,3.26,11,1.56,4.33,0,.93,2.63-8.51-.15-11.61,1.55S60.63,340.06,63,343c1.4,1.69,3.25-2.48,7.73-4.34s5.26,1.23,7.75,1.54,2.63-5.1,4.64-4.64,3.87-1.7,7.58-1.08a9.75,9.75,0,0,0,8.21-2.32c1.85-1.54,6.8,3.09,8.36,2s8.35-2.33,11.76-2.17,12.22-3.87,14.54-6-1.39-2.62-4.49-2.16-2.48-3.1.78-6.19S138.22,312.16,138.53,307.52Zm-93-77.69c4.18-.15,9-7.27,7-9.29S42.41,229.94,45.52,229.83Zm59.9-33.59c2.63-2.62,5.72-12.68,1.7-11.6S104.27,197.39,105.42,196.24Z"/><path class="cls-7" d="M229.07,247.94c-1.55-.77-2.17-5.73-.31-7.27s2.64-7.44,1.08-9-7.12,0-7.58,4.17-4.95,2.32-6.19,3.25,2.47,2.79.46,4.65-2.78-2.79-6-3.09-3.56,4.94-5.26,7.58-.63,8.2,0,11.92,5.11,6,4,9.13c-.5,1.43.51,3.05,1.59,4.63,4.12.08,7.89.38,9.56.93a10.34,10.34,0,0,0,3.87-.09c-1.36-2.21-4.42-4-4.18-5.63.31-2.16,3.25-.78,5.42,1.08s7,2.17,7.42-.15c.28-1.43-.77-8.05-3.71-6.5s-3.71.93-4.8-.62,2.17-4,2.94-6.5,5.88-1.56,6.65-3.56S230.61,248.71,229.07,247.94Zm23.38,9.44c-1.25-.78-2.17,2.16-3.57,2.48s-2.94-5.89-3.56-2.48-3.71-1.4-6.81,2.93,1.86,8.21,4,9.61-.15,3.4-2.93,2.78-1.09,4,2.78,4.64,8.05-6.8,7.59-8.66S253.91,258.29,252.45,257.38Z"/><path class="cls-7" d="M367,92.75c-1.49-1.48-4.47-5.46-2-5.46s3.48-7.45.5-9,0-8-2.49-9.45-1-6.47-.49-9.94-9.46-6.47-14.93-9-7.95-6.47-12.43-9-6,4-6,8-4,4.47-7,2-6.47,0-11-2-2.48,4.47-2.48,7.45-5,3-8,3-7.95,2.49-7.95,6-4.47,5.47-3,7.46-.49,4-2.49,5.47-4,6.46-5.46,8,1,4-2,6-6.46.49-7.95,2,0,5-.5,9.46-4,9.44-7,13.41,1,5,2.49,5.47,1.48,3,0,6-5,1-7,.51-7.46,2-10.44,7-2,8-1,10.44-2.48,5.48,0,10.45-1,6-.49,10,6.46,3.47,7,7.45-2,5.47-4,5.47-1.49,4,.5,5,1.49,8,.5,9.95-7.46,0-7,2.48-1.49,6.46-1.49,8.46-.5,8.45-2.49,7a4.64,4.64,0,0,0-3.27-.47c0,.32,0,.63,0,1a12.64,12.64,0,0,0,4.64,10.51c3.41,2.8.78,7,3.72,10.84s2,6.66,5.26,9.45,3.56,4.33,2.17,7.89,2.78,2.63,2.93,4.79-.91,6.66.17,8.83,3.25,0,8.2-.16,3.71-3.25,3.86-6.19,2.64-1.55,3.25-3.4,5.11-2.32,8.67-.79,5.41-1.07,6-4.79,2.62.78,3.71,1.55,4.33-5.72,5.87-9.9-.15-3.4-3.71.61-1.54-4-.15-7.27,1.24-12.7,1.7-14.85,1.4-5.42,5.88-6.35,10.37-6.5,9.45-8.82,6.19-6.18,6.19-8.51-7.43-9.45-9.9-11-7.9-.31-7.43-2-.63-8.36-1.24-11.76,3.86-7,3.86-10.22-.15-7,2.78-8.05,1.09-3.86,5-4.79,3.1-6.5,7.28-8.21,4.48-3.1,9.9-5.72,14.55-8.82,16.1-12.08-5.58-6.65-1.09-10.06.77-7.27,4-8.51,4.49-2.94,6.82-5.41,5.41-.15,11-1.09a13.87,13.87,0,0,1,5.67.26C368.2,95.46,367.65,93.44,367,92.75ZM314.65,228.9c-5.88.16-8.63,11.73-7.12,13.63C308.77,244.07,320.53,228.74,314.65,228.9Z"/><path class="cls-7" d="M406.42,209.16c1.29-2.76,4.64-3.23,2.14-6.87a5.88,5.88,0,0,1-2.29,1.07c-4.49,1.25-14.24-3.09-19.81-2s-16.87,1.08-19.5,3.87-9.29,3.56-6.35,6,0,3.71,2.17,6.65,3.25,4.19,6.2,3.56,5.26.92,2.15,4.18a1,1,0,0,1-.12.17c4.95-.46,10.46-.78,11.27-.17,1.25.93,8.67,6.81,10.53,6.19,1.13-.38,6.21.17,10,.65a2.46,2.46,0,0,1,.37-2.9c1.39-1.16,4.42-1.16,2.79-3.48s-2.09-2.78-2.32-5.57-.93-4.18-.7-6S405,212.18,406.42,209.16Zm-54.79,7.52c-5.56,1.54-6.39,9.25-4.17,9.13,2.78-.16,9.13-5.42,10.84-7.13S357.21,215.13,351.63,216.68Zm4.65-4.5c1.24-2.32-8.94-1.3-6.65.78C351.33,214.51,355.05,214.5,356.28,212.18Z"/><path class="cls-7" d="M433.67,26.63c-.63,2.32-4.8,1.86-4.65-.46s-6.5-4.18-6.81-5.27,2.79-.93,5.27.46,4.18.47,7-2.16,6.65-.46,7.12-2.78-4.49-3.88-5.42-5.27-4.48-3.25-7.89-2.63-3.56-.77-5.58-2.63-8.19,1.24-8.19,5.57-3.88,3.25-2.48.93-1.86-5.11,1.24-5.88,1.39-5.42-4.34-5.88S401,5,402.4,6.51s-3.87,8.2-6.19,8.2.31-5.72.16-8.82-2.32-1.39-6.66,3.56-7.58,9.44-10,9.9-2.18-4.49,1.85-6.65,4.18-8,6.8-8,2.64-3.09-1.23-4-4.49,3.4-5.73,4.64-7.58-2.17-7.42-.93-3.4,1.7-1.86,4-.77,4.34-2.32,1.56-5.42-.63-7.27,2.47-4.34,2.94-2.48,4,1.7,5.26-1.08,6-1.71-7.59-3.87-6.81-.78-4,2.16-4,5.88-4.33,5.57-5.41c-.52-1.81-3.71-1.39-3.71.93s-4.64,1.86-8.51,1.7-3.72,4.49.62,7-.78,4-2.95,2.17-5.56-.93-7.89.15,5.58,3.88,5.89,5.27-4-1.7-5-.62S336,22,335.7,19.35s-7.28,1.08-3.4,2,2.47,3.41,2.47,6.82-4.49.77-3.56-2.17-2.79-2.33-5.87-.47.46-3.4-.78-6-4,0-7.28.63-4.95.77-2.94,2.94,1.71,5.26-.93,4.8-3.71,0-3.41,2.47-3.4,2.63-3.71.47-5.57-1.56-7.12.93-5.88,4.33-5.41,7.12,3.87-1.4,6.66-.48-.16,2.33,1.39,3.72,1.23,4.8-.93,2.79-5-2.64-5.42.61-2.79-.46-4.65-2.78-3.71,4.34-5.72,2.78,4-6.33,2.47-8.66-2.63,1.4-6.18,4.95S273,45.2,274.73,46.9s-3.57,2.64-4.49,5.57-8.21,4-12.85,7.13.93,3.24,3.56.3,3.57-1.23,7.74-3.87,8.67-4.79,10.22-3.72,4.18,1.87,6.18-.92,4.5-2.18,6.5-.47-3.4,3.1-.93,5.58-2.93,3.86-2.93,1.7-3.1-4-4.19-2-2.93,4.18-5,4.34-4.17,3.87-4.17,7.59-3.57,0-3.87,3.25-5.27,9-9.6,13.14-.31,5.11-1.7,7.75-6.51.31-8.2,1.39.93,7.58-1.39,9.6,0,4.79,0,7.11-6-1.39-6.5.93-5.73,1.71-7.28,2.32,3.1,4.33,5.89,6.5-2.63,3.87-3.26,1.4-4.49,1.54-9.28,3.71-2.79,6.5-6.5,6.65-2.63,6-5.11,7.89-1.86-4.32-5.73-4.48-3.56,2.63-1.24,5.88-3.55.78-5.72,3.57-8.37,1.38-10.06,3.71,4.63,2.32,5.57,4.17-5.57.93-9,.16-2.47,4.33-5.57,3.71-7,2.63-4.79,4.81-1.71,2.47-3.88,1.07-4,2-4.79,4.65,4.17,4,4,5.25-4,3.26-1.24,3.89.78,3.08-1.08,3.85-1.86,2.65,0,5-3.25,2.79-.78,6.35,4.33-.94,5.42,1.69,4,.32,7.43-2.78,4.65,3.41,1.86,3.26-6,1.53-5.42,4.33-4.33,2.31-4.18-1.09-5.72.62-3.56,3.1-.77,3.86-.77,6.19,4.18,1.85,5.88-.78,4.49-2,5.57.63S183,206.46,183,210s-2.32.46-4.34,3.25,7.9,7.89,11,8.66,6,4.18,12.22,3.26,17.95-12.38,19.5-14.4,4.95.31,7.27-1.55.93-6.64,2.64-7.57,2.63,5.1,4.18,5.72,2.41,1.66,2.47,4.74a4.64,4.64,0,0,1,3.27.47c2,1.49,2.49-5,2.49-7s2-6,1.49-8.46,6-.49,7-2.48,1.48-8.95-.5-9.95-2.49-5-.5-5,4.47-1.5,4-5.47-6.47-3.48-7-7.45,3-5,.49-10,1-8,0-10.45-2-5.46,1-10.44,8.46-7.46,10.44-7,5.47,2.48,7-.51,1.48-5.47,0-6-5.47-1.49-2.49-5.47,6.46-9,7-13.41-1-8,.5-9.46,5,0,7.95-2,.5-4.47,2-6,3.48-6.46,5.46-8,4-3.48,2.49-5.47,3-4,3-7.46,5-6,7.95-6,8,0,8-3-2-9.45,2.48-7.45,8-.51,11,2,7,2,7-2,1.49-10.45,6-8c.35.19.68.41,1,.62,1.48-3.32,4.3-5.43,6.94-5.1,4,.5,6.46,7.46,11.44,8.45s9.94,3,11.43.49,5,1.5,8,.5,3,5.48,6,1.5-.5-6.46,4.48-6,2-5.48,2-9,6.46-4,6.46-7,8.95-.5,10.44-2.49,6.46-3.47,8.46,0,10.44,4.47,10.94,7.46a46.91,46.91,0,0,1,0,5.83,7.3,7.3,0,0,1,4.81-2.38c3.09,0,5.87-4.64,8.66-4,2.32.52,4.61.13,5.33-3.75C439,24.72,434.23,24.52,433.67,26.63Z"/><path class="cls-7" d="M272.71,496.64c-6.35,1.39-9,1.86-12.68,0s-9.73,1.69-8.83,4.17c.62,1.71,3.1,3.88,10.83,5.9S270.7,514,274,514.13s3.56-2.95,2.79-7.12,3.87-9,4.33-9.75S279.05,495.25,272.71,496.64Zm-59.89-35.13c-3.4,2.94-6.21-.51-7.58,1.86-1.71,2.94,5.26,7.42,3.86,13.46s.78,13.62,4.34,10.06,5.26-1.85,7.27-4.49.31-12.38,1.71-17S216.22,458.57,212.82,461.51Zm75.83-4.95c-4-2.47-1.39-6.5-7.73-6.2s-13.93-7.58-16.25-16.71-12.22-9.59-14.7-15,2.32-6,.16-10.52c-1.21-2.5,1.46-4.71,4.61-6a90.58,90.58,0,0,1,.55-13.88,17.66,17.66,0,0,1-5.32-1.06c-1.17-.7-1.4-4.42-2.1-4.42s-7.19,0-8.36,1.17-4.64,3.25-6.49,2.09c-.41-.24-.85-.5-1.3-.72l-2,1.88s-.32,2.48-1.56,2.48-3.09-.92-3.09,1.23-3.41,1.55-5,1.25-3.72.3-3.72,2.16-.31,5.89-2.78,3.72-5-7.74-5.89-7.13-3.09,7.43-5.26,7.43c-1.34,0-5.75.36-8.93.64-.83,2.66.06,4.25,1.19,4.94s-.7,3.48-2.09,4.18-3.71,0-2.08,2.55,4.64,2.78,3,5.33a3.16,3.16,0,0,0,2.32,5.11c2.32.24,5.58-.23,4.88,1.64a15.5,15.5,0,0,0-1.18,3.54c1.83-.53,3.44-.62,5.05-1.47,3.25-1.69,1.86-4.63,7.27-6.18s12.54,2.94,14.71,6.18,2.78,3.57,3.24,6.21,2.48,7.89,9.91,12.68,10.38,10.21,14.24,12.23,7.74,1.55,10.06,4.33,5.41,4.33,9.13,6,3.87,5.72,7.43,6.19,1.23,3.56,3.4,6.19,2.79,8.2.47,11.3-1.09,8.35.46,8.35,4.8-5.57,5.26-8.66,3.56-2.93,6-6.19-3.71-4-4.79-8.21,4.65-7.89,10.06-4.49,7.58,5.73,7.89.47S292.67,459,288.65,456.56Z"/><path class="cls-7" d="M314,431.08c-2.14,2.89-4.24,6.57-4,7.77a10.55,10.55,0,0,1-.44,3.24,55.89,55.89,0,0,0,7.4,5.49l.56.29c.61-3.43,3-7,4.7-7.4C319.83,437.52,316.29,433.36,314,431.08Z"/><path class="cls-7" d="M350.71,428.54c-2.33-2.09-2.09-5.79,0-7.19s.23-3.26.23-5.57-10-3-11.61-3.49,1.17-6.5-1.39-6.5-3.48-1.85-3.48-3.71-3.95-4.88-3.72-6a1.14,1.14,0,0,1,.29-.47c-1.43-.22-2.53-.39-2.94-.48a37,37,0,0,1-4.49-1.38s-6.44,2.08-10.91,3.44c.3,2.73,1,5.69,2.73,6.33,3.32,1.25,2.08,4.57,3.32,7.49s.84,16.22-.83,16.22c-.7,0-2.31,1.73-3.9,3.89,2.28,2.28,5.82,6.44,8.22,9.39a1.41,1.41,0,0,1,.32-.09c2.08,0,9.69,5.54,9.69,5.54s10.77-2.24,18-3.3a15.4,15.4,0,0,0,.21-3.17c-.24-1.39,1.4-4.18,3.48-4.18S353,430.63,350.71,428.54Z"/><path class="cls-7" d="M80.69,163.82c5.14-.26,5-5.93,7.12-5.67s5.54-4,6.86-6.59-1.45-7.38-4.62-7.38-5.54-2.51-4.87-4.35-1.72-4.23-1.59-5.54-4-.14-6.07.4-6.59-5.15-8.57-4.1-.53,3.82-1,5.41-5.27-1.46-5.27.39-2,2.11-3.57.13-5.28-.79-5.14.79-1.58.27-4.62-1.58-6.2,2.12-5.93,4.1-1.06,2.49-3.57-1.85-5.4.39-4.08,2.77.79,5.27-1.18,4.08-4.62.79-5.81,2.64-5.41-5.41-2.37-7.12-9.63-9-13.58-9-1.33,2.91,1.32,5-1.86,1.59-3.3-.26-4.23-.4-5.81,2.24S.77,142.46.51,144.31s4.48,3.82,8.57,2.11,8.7-2,10.82,0-3.83,2.77-1.72,4.35.4,2.9-4.61,2.5S2.49,154.33,3.41,156s12.79-1.44,12.93.27,0,4.61,3.16,3.3,1.05,2.37,2.63,3,1.19,3.83-3,4.1-6.28,1.11-4.49,2.89c2.24,2.25,6.86.66,11.34-.39s10.95,4.35,16.22,6.46,14.37-.79,15.43-3.56,8.18-1.72,11.08-3.69S75.54,164.09,80.69,163.82Z"/><path class="cls-7" d="M451,288.1c-1.86-.47-3-4.64-6-5.81s-2.32-4.87-4.87-6.5-.94-4.87-1.17-7.43.47-6.5-.92-7.19-7.2-3.95-9.75-2.79-4.41,2.09-5.58,0-2.78-3.25-5.33-2.56-4.19-.46-5.58-1.62a2.33,2.33,0,0,1-.53-.76,8.05,8.05,0,0,0-3.25,1.31c-1.56,1.23-1.86,3.71-4,3.71s-4.64-.93-7.12.93-3.09,4-2.78,5.56.62,4-1.24,4-1.55,2.17-3.41,2.78-4.95,3.41-5.26,5-.31,5-1.55,5-5.57.61-6.81,2.16-2.77,3.1-5.25,2.48a53.13,53.13,0,0,0-7.68-.55,1.75,1.75,0,0,1-.07.93,7.15,7.15,0,0,0,1.63,7.89c1.86,1.63,2.55,8.13.46,9.06s-6,3.71-6,5.34,4.18,3,3.49,5.34a17.07,17.07,0,0,0-.19,5.74c2,.08,3.93.43,5.6-1.25,1.86-1.86,2.8-4,6.82-4s16.09,0,17.95,2.17,6.81.31,9.59,1.55,6.81,2.48,7.12.93,4,2.16,6.81.62,5.26,3.09,6.82,2.16,8-.92,9.58.63,1.86-1.56,1.86-3.41,6.2-6.81,6.2-6.81a23.67,23.67,0,0,0,6.73-1.36,13.12,13.12,0,0,1-1.56-4.37c-1.15-5.11-3-8.12-1.62-9.75s5.34,2.09,7.43,1.16,5.8-2.79,5.34-4.88S452.85,288.56,451,288.1Z"/><path class="cls-7" d="M208.55,528.7c-.77-5.27-11.41,1.57-9.13,3.1C204.07,534.89,209.32,534,208.55,528.7Z"/><path class="cls-7" d="M229.93,384.61A3.59,3.59,0,0,0,226.8,381c-3.26-.6-3.05-1.73-3.36-2.77a12.31,12.31,0,0,0-1.11-1.91s-1.78.17-1.34,3.18c.15,1,.23,1.63.26,2.06a3,3,0,0,0,.91,1.87,4.38,4.38,0,0,0,3.25,1.43A11.26,11.26,0,0,1,229.93,384.61Z"/><path class="cls-7" d="M120.74,441s-1,3.79,4.86,3.56c0,0,3.84-1.94,7.33-.7s2.21-1.9,2.21-1.9-3.45-.66-4.85-1.94-2.4-2.25-3.76-2.09a1,1,0,0,0-.85,1.39S125.88,440.94,120.74,441Z"/><path class="cls-7" d="M198,426.41a10.36,10.36,0,0,0-5.35.81c-1.27.57-4.05,0-4.47,2.45C186.9,437.27,192,431,192,431l4.88-4.11,1.17-.46Z"/><text class="cls-9" transform="translate(297.98 313.81)">POLAND</text><text class="cls-9" transform="translate(425.05 354.39)">UKRAINE</text><text class="cls-10" transform="translate(403.61 368.29) rotate(54.51)">MOLD<tspan class="cls-11" x="13.24" y="0">O</tspan><tspan class="cls-12" x="16.44" y="0">V</tspan><tspan class="cls-13" x="19.38" y="0">A</tspan></text><text class="cls-14" transform="translate(266.69 343.88)">CZ<tspan class="cls-15" x="7.63" y="0">E</tspan><tspan x="11.27" y="0">CH</tspan><tspan x="-4.62" y="7.45">REPUBLIC</tspan></text><text class="cls-16" transform="translate(88.02 304.57)">UNITED<tspan x="0" y="8.94" xml:space="preserve"> KINGDOM</tspan></text><text class="cls-14" transform="translate(260.41 377.23)"><tspan class="cls-17">A</tspan><tspan x="3.96" y="0">U</tspan><tspan class="cls-18" x="8.25" y="0">S</tspan><tspan x="11.96" y="0">TRI</tspan><tspan class="cls-19" x="20.94" y="0">A</tspan></text><text class="cls-9" transform="translate(121.64 390.7)">FRANCE</text><text class="cls-9" transform="translate(349.29 402.96)">ROMANI<tspan class="cls-20" x="42.33" y="0">A</tspan></text><text class="cls-14" transform="translate(360.29 441.37)">BU<tspan class="cls-21" x="8.34" y="0">L</tspan><tspan class="cls-22" x="11.68" y="0">G</tspan><tspan x="15.72" y="0">ARI</tspan><tspan class="cls-23" x="25.28" y="0">A</tspan></text><text class="cls-24" transform="translate(333.47 482.16)">GRE<tspan class="cls-25" x="9.42" y="0">E</tspan><tspan x="12.32" y="0">CE</tspan></text><text class="cls-9" transform="translate(60.76 475.33)">S<tspan class="cls-26" x="6.98" y="0">P</tspan><tspan x="13.8" y="0">AIN</tspan></text><text class="cls-27" transform="translate(33.5 493.7) rotate(-77.51)">PO<tspan class="cls-28" x="9.61" y="0">R</tspan><tspan x="14.31" y="0">TU</tspan><tspan class="cls-29" x="23.6" y="0">G</tspan><tspan class="cls-30" x="28.45" y="0">A</tspan><tspan class="cls-31" x="33.3" y="0">L</tspan></text><text class="cls-9" transform="translate(209.7 323.26)">GERMAN<tspan class="cls-32" x="46.28" y="0">Y</tspan></text><text class="cls-9" transform="translate(259.47 201.18)"><tspan class="cls-33">S</tspan><tspan x="6.84" y="0">WEDEN</tspan></text><text class="cls-9" transform="translate(192.14 180.5)">NO<tspan class="cls-34" x="15.54" y="0">R</tspan><tspan class="cls-35" x="22.8" y="0">W</tspan><tspan class="cls-36" x="31.59" y="0">A</tspan><tspan class="cls-37" x="38.31" y="0">Y</tspan></text><text class="cls-9" transform="translate(365.78 155.96)">FINLAND</text><text class="cls-9" transform="translate(215.2 411.08)">I<tspan class="cls-38" x="2.9" y="0">T</tspan><tspan x="8.46" y="0">A</tspan><tspan class="cls-39" x="15.96" y="0">L</tspan><tspan class="cls-37" x="21.03" y="0">Y</tspan></text><text class="cls-40" transform="translate(319.68 433.95)">SERBI<tspan class="cls-41" x="23.82" y="0">A</tspan></text><text class="cls-40" transform="translate(296.82 385.32)">HUN<tspan class="cls-42" x="18.03" y="0">G</tspan><tspan x="23.69" y="0">A</tspan><tspan class="cls-43" x="29.34" y="0">R</tspan><tspan class="cls-44" x="34.7" y="0">Y</tspan></text><text class="cls-14" transform="translate(311.93 358.85)">S<tspan class="cls-45" x="3.76" y="0">L</tspan><tspan class="cls-46" x="7.09" y="0">O</tspan><tspan class="cls-47" x="11.08" y="0">V</tspan><tspan x="14.75" y="0">AKI</tspan><tspan class="cls-19" x="23.92" y="0">A</tspan></text><text class="cls-48" transform="translate(303.16 223.1)">B<tspan class="cls-49" x="4.81" y="0">A</tspan><tspan class="cls-50" x="9.65" y="0">L</tspan><tspan class="cls-49" x="12.81" y="0">TIC SE</tspan><tspan class="cls-51" x="34.52" y="0">A</tspan></text><text class="cls-52" transform="translate(109.05 208.37)">NO<tspan class="cls-53" x="11.7" y="0">R</tspan><tspan x="17.18" y="0">TH SE</tspan><tspan class="cls-54" x="40.75" y="0">A</tspan></text><text class="cls-55" transform="matrix(0.8, -0.59, 0.59, 0.8, 165.3, 321.26)">NETHERLANDS</text><text class="cls-56" transform="matrix(0.97, 0.25, -0.25, 0.97, 154.97, 332.52)">BE<tspan class="cls-57" x="7.73" y="0">L</tspan><tspan x="11.06" y="0">GIUM</tspan></text><text class="cls-14" transform="translate(350.87 266.38)">LITH<tspan class="cls-17" x="12.76" y="0">U</tspan><tspan class="cls-58" x="16.98" y="0">ANI</tspan><tspan class="cls-19" x="26.82" y="0">A</tspan></text><text class="cls-16" transform="translate(373.22 245.55)">L<tspan class="cls-59" x="4.08" y="0">A</tspan><tspan x="8.37" y="0">TVI</tspan><tspan class="cls-51" x="19.14" y="0">A</tspan></text><text class="cls-14" transform="translate(370.93 216.01)">E<tspan class="cls-60" x="3.67" y="0">S</tspan><tspan class="cls-61" x="7.38" y="0">T</tspan><tspan x="10.73" y="0">ONI</tspan><tspan class="cls-62" x="20.65" y="0">A</tspan></text><text class="cls-14" transform="translate(24.81 299.83)">IRELAND</text><text class="cls-63" transform="translate(333.16 454.13)">M<tspan class="cls-64" x="2.91" y="0">A</tspan><tspan x="5.28" y="0">CEDONI</tspan><tspan class="cls-51" x="18.38" y="0">A</tspan></text><text class="cls-63" transform="translate(319.23 464.48)">AL<tspan class="cls-65" x="4.46" y="0">B</tspan><tspan x="6.87" y="0">ANI</tspan><tspan class="cls-51" x="12.77" y="0">A</tspan></text><text class="cls-63" transform="translate(291.24 415.59)">BOSNI<tspan class="cls-51" x="10.63" y="0">A </tspan><tspan x="13.81" y="0">AND</tspan><tspan x="0" y="4.47">HERZ</tspan><tspan class="cls-66" x="9.35" y="4.47">E</tspan><tspan class="cls-67" x="11.53" y="4.47">G</tspan><tspan class="cls-68" x="14" y="4.47">O</tspan><tspan class="cls-69" x="16.4" y="4.47">VIN</tspan><tspan class="cls-51" x="22.26" y="4.47">A</tspan></text><text class="cls-24" transform="translate(283.07 404.43)">CR<tspan class="cls-70" x="6.41" y="0">O</tspan><tspan class="cls-71" x="9.64" y="0">A</tspan><tspan x="12.49" y="0">TI</tspan><tspan class="cls-72" x="16.51" y="0">A</tspan></text><text class="cls-24" transform="translate(257.07 396.51)">S<tspan class="cls-73" x="3" y="0">L</tspan><tspan class="cls-74" x="5.67" y="0">O</tspan><tspan class="cls-75" x="8.86" y="0">VENI</tspan><tspan class="cls-72" x="19.61" y="0">A</tspan></text><text class="cls-63" transform="translate(194.1 387.56)"><tspan class="cls-64">S</tspan><tspan x="2.21" y="0">WITZERLAND</tspan></text><text class="cls-63" transform="translate(208.15 254.45)">DENMAR<tspan class="cls-64" x="14.98" y="0">K</tspan></text><text class="cls-76" transform="translate(416.52 481.02)">BL<tspan class="cls-77" x="11.93" y="0">A</tspan><tspan x="18.26" y="0">C</tspan><tspan class="cls-77" x="24.73" y="0">K</tspan><tspan class="cls-78" x="30.32" y="0" xml:space="preserve"> SE</tspan><tspan class="cls-72" x="44.77" y="0">A</tspan></text><text class="cls-79" transform="translate(32.43 158.46)">ICELAND</text><text class="cls-9" transform="translate(384.67 294.4)">BELARUS</text><text class="cls-80" transform="matrix(1, 0, 0, 1, 269.59, 442.43)">LI<tspan class="cls-81" x="3.97" y="0">E</tspan><tspan x="6.87" y="0">CHEN</tspan><tspan class="cls-82" x="19.92" y="0">S</tspan><tspan x="22.88" y="0">TEIN</tspan></text><line class="cls-5" x1="223.92" y1="382.43" x2="280.13" y2="433.98"/><path class="cls-83" d="M279,435.15a1.66,1.66,0,1,0-.1-2.34A1.66,1.66,0,0,0,279,435.15Z"/><text class="cls-84" transform="translate(287.62 453.79)">MONTEN<tspan class="cls-85" x="19.66" y="0">E</tspan><tspan x="22.56" y="0">GRO</tspan></text><line class="cls-5" x1="315.63" y1="438.5" x2="306.13" y2="447.11"/><path class="cls-83" d="M305.37,446.17a1.21,1.21,0,1,0,1.7.09A1.2,1.2,0,0,0,305.37,446.17Z"/><text class="cls-86" transform="matrix(1, 0, 0, 1, 67.37, 423.32)">ANDORR<tspan class="cls-87" x="24.54" y="0">A</tspan></text><path class="cls-88" d="M100.72,423.79a.75.75,0,0,1-.14-1.05.74.74,0,0,1,1-.14.75.75,0,0,1,.15,1A.76.76,0,0,1,100.72,423.79Z"/><line class="cls-5" x1="127.03" y1="440.78" x2="101.36" y2="423.33"/><text class="cls-89" transform="matrix(1, 0, 0, 1, 134.07, 278.61)"><tspan class="cls-90">L</tspan><tspan x="3.94" y="0">UXEMBURG</tspan></text><path class="cls-91" d="M181,276.41a.75.75,0,0,1,.88-.59.76.76,0,0,1,.59.88.76.76,0,0,1-.88.59A.74.74,0,0,1,181,276.41Z"/><polyline class="cls-5" points="183.61 347.8 207 301.26 181.76 276.61"/><text class="cls-1" transform="translate(176.57 449.26) rotate(0.77)">MON<tspan class="cls-92" x="13.2" y="0">A</tspan><tspan x="17.16" y="0">CO</tspan></text><line class="cls-5" x1="190.3" y1="429.93" x2="190.3" y2="440.95"/><path class="cls-83" d="M188.83,440.87a1.47,1.47,0,1,0,2.93,0,1.47,1.47,0,0,0-2.93,0Z"/><text class="cls-93" transform="translate(284.25 525.09)">MED<tspan class="cls-94" x="13" y="0">I</tspan><tspan class="cls-95" x="14.66" y="0">TERRANEAN</tspan><tspan x="19.44" y="7.45">SEA</tspan></text></g></g></svg>