<svg xmlns="http://www.w3.org/2000/svg" viewBox="0 0 1047.24 287.01"><defs><style>.cls-1{fill:#55b4c0;}</style></defs><title>Asset 1</title><g id="Layer_2" data-name="Layer 2"><g id="Layer_1-2" data-name="Layer 1"><g id="Layer_1-3" data-name="Layer 1"><path class="cls-1" d="M1043.71,39.29l-6-14.1,7.7-10.22a9.35,9.35,0,0,0-14.93-11.25l-7.7,10.22L1007.51,12a8,8,0,0,0-3.89,15.42l6.93,2.67-1.34,1.79-3,.08A8,8,0,0,0,1005,47.86a9.77,9.77,0,0,1,2.77,1.47,10,10,0,0,1,2.17,2.25A8,8,0,0,0,1024.88,46l-.75-2.89,1.35-1.79,4.48,5.93a8,8,0,0,0,13.75-8Zm-6,5.47a2.67,2.67,0,0,1-3.48-.7l-8.74-11.58L1018.32,42l1.38,5.39a2.67,2.67,0,0,1-5,1.85,14.68,14.68,0,0,0-8.75-6.6,2.67,2.67,0,0,1,.4-5.3l5.56-.16,7.15-9.49-13.55-5.22a2.66,2.66,0,0,1,1.3-5.13l18.3,2.32,9.57-12.7a4,4,0,1,1,6.4,4.82l-9.58,12.71,7.29,16.94A2.68,2.68,0,0,1,1037.7,44.76Z"/><circle class="cls-1" cx="1038.3" cy="8.81" r="1.34"/></g><path class="cls-1" d="M4.08,211,0,208.06c.05-.07,1.28-1.79,3.69-4.87l3.94,3.09C5.3,209.25,4.09,210.94,4.08,211Z"/><path class="cls-1" d="M684,287c-1.15,0-2.29,0-3.43,0l.06-5c3.89.05,7.88,0,11.79-.1l.15,5C689.77,287,686.89,287,684,287Zm-15.42-.43c-4-.22-8-.55-12-1l.52-5c3.85.4,7.79.72,11.72.94Zm36-.31-.37-5c3.9-.28,7.84-.66,11.73-1.11l.58,5C712.57,285.6,708.55,286,704.59,286.27Zm-59.82-2.19c-4-.62-7.94-1.35-11.81-2.17l1-4.89c3.77.8,7.66,1.51,11.54,2.12Zm83.64-.58-.79-4.94c3.87-.61,7.77-1.32,11.59-2.1l1,4.89C736.32,282.15,732.35,282.87,728.41,283.5Zm-107.12-4.39c-3.86-1.05-7.73-2.21-11.5-3.46l1.58-4.75c3.68,1.23,7.45,2.36,11.22,3.38Zm130.62-.4-1.2-4.85c3.79-.94,7.62-2,11.37-3.08l1.41,4.8C759.67,276.7,755.77,277.75,751.91,278.71Zm23-6.75-1.6-4.73c3.7-1.25,7.43-2.6,11.09-4l1.79,4.66C782.49,269.32,778.69,270.69,774.93,272Zm-176.42-.44c-3.7-1.47-7.4-3.08-11-4.77l2.12-4.53c3.54,1.66,7.16,3.22,10.76,4.66Zm198.81-8.14-2-4.6c3.58-1.53,7.2-3.17,10.75-4.86l2.15,4.52C804.63,260.16,801,261.82,797.32,263.38Zm-220.57-2c-3.48-1.87-7-3.89-10.41-6L569,251.1c3.35,2.05,6.77,4,10.18,5.85ZM819,253.1l-2.31-4.44c3.45-1.79,6.94-3.69,10.37-5.64l2.47,4.35C826,249.35,822.48,251.27,819,253.1Zm-262.71-4.26c-3.24-2.22-6.51-4.58-9.74-7l3-4c3.16,2.4,6.37,4.71,9.54,6.88Zm283.56-7.56L837.21,237c3.32-2,6.68-4.18,10-6.35l2.76,4.17C846.6,237.05,843.19,239.21,839.83,241.28Zm-302.7-6.91c-3-2.47-6-5.1-9-7.79l3.33-3.73c3,2.65,6,5.23,8.91,7.67Zm322.7-6.29L856.94,224c3.17-2.25,6.39-4.59,9.55-7l3,4C866.29,223.43,863,225.81,859.83,228.08ZM519.3,218.46c-2.77-2.64-5.64-5.46-8.53-8.37l3.55-3.52c2.86,2.88,5.69,5.66,8.43,8.28ZM879,213.66l-3.13-3.9c3-2.43,6.11-5,9.13-7.53l3.24,3.81C885.13,208.63,882,211.2,879,213.66ZM502.46,201.51c-2.62-2.76-5.28-5.61-8.13-8.73L498,189.4c2.84,3.1,5.48,5.93,8.08,8.67Zm394.74-3.35-3.34-3.72c2.9-2.61,5.83-5.31,8.7-8L906,190C903.09,192.79,900.13,195.52,897.2,198.16Zm-882.09-1-3.8-3.25c2.53-3,5.21-6,8-9L23,188.31C20.24,191.28,17.6,194.25,15.11,197.17ZM486.33,184q-4-4.44-7.91-8.89l3.74-3.32q3.93,4.44,7.89,8.87Zm428.25-2.25-3.53-3.54c2.78-2.76,5.56-5.61,8.29-8.47l3.61,3.46C920.2,176,917.38,178.91,914.58,181.7Zm-883.51-2-3.58-3.49c2.75-2.83,5.6-5.68,8.48-8.47l3.48,3.59C36.61,174.09,33.79,176.91,31.07,179.71Zm439.48-13.56q-3.94-4.46-7.88-8.87L466.4,154q3.94,4.43,7.89,8.89Zm460.57-1.76-3.7-3.36c2.63-2.89,5.28-5.87,7.87-8.86l3.78,3.28C936.45,158.47,933.77,161.48,931.12,164.39ZM48.06,163.22l-3.38-3.69c2.93-2.68,5.94-5.36,9-8l3.27,3.78C53.92,157.92,51,160.57,48.06,163.22Zm406.67-14.73c-2.84-3.12-5.48-6-8.06-8.7l3.64-3.43c2.59,2.75,5.25,5.61,8.12,8.76ZM66,147.72l-3.16-3.87c3.08-2.52,6.24-5,9.38-7.45l3,4C72.12,142.75,69,145.23,66,147.72Zm880.86-1.39-3.85-3.2c2.5-3,5-6.1,7.47-9.2l3.92,3.1C951.87,140.17,949.33,143.29,946.81,146.33ZM84.69,133.27l-2.94-4c3.22-2.35,6.52-4.67,9.79-6.9l2.82,4.13C91.13,128.66,87.87,131,84.69,133.27Zm353.76-2c-2.86-2.89-5.7-5.68-8.43-8.29l3.45-3.62c2.77,2.64,5.64,5.47,8.54,8.4Zm523.23-3.69-4-3c2.37-3.13,4.74-6.34,7.06-9.53l4,2.93C966.47,121.19,964.07,124.42,961.68,127.58Zm-857.46-7.65-2.69-4.21c3.36-2.15,6.78-4.27,10.18-6.3l2.57,4.29C110.92,115.72,107.54,117.81,104.22,119.93Zm317.12-5c-3-2.66-6-5.23-8.94-7.63l3.16-3.87c3,2.44,6.06,5,9.11,7.76Zm554.39-6.79-4.12-2.85c2.25-3.24,4.49-6.55,6.65-9.83l4.17,2.76C980.25,101.57,978,104.91,975.73,108.19Zm-851.21-.39-2.44-4.37c3.48-1.94,7-3.85,10.56-5.67l2.29,4.45C131.46,104,128,105.88,124.52,107.8Zm278.61-7.66c-3.19-2.36-6.44-4.62-9.64-6.73l2.75-4.18c3.28,2.16,6.59,4.48,9.86,6.89ZM145.52,97l-2.15-4.51c3.6-1.72,7.26-3.39,10.9-5l2,4.58C152.69,93.61,149.07,95.26,145.52,97Zm843.39-8.76-4.24-2.65c2.14-3.4,4.22-6.81,6.18-10.13L995.16,78C993.17,81.31,991.07,84.76,988.91,88.19ZM167.17,87.5l-1.85-4.65c3.7-1.47,7.47-2.9,11.21-4.24l1.69,4.71C174.54,84.64,170.82,86,167.17,87.5Zm216.31-.25c-3.4-2-6.88-3.82-10.33-5.52l2.21-4.48c3.55,1.75,7.12,3.65,10.62,5.66ZM189.4,79.51l-1.53-4.76c3.8-1.21,7.66-2.38,11.48-3.46l1.36,4.81C196.94,77.17,193.14,78.32,189.4,79.51Zm173.09-2.6c-3.59-1.48-7.28-2.85-11-4.08l1.59-4.75c3.78,1.27,7.58,2.69,11.28,4.21ZM212.12,73.09l-1.19-4.86c3.87-1,7.8-1.84,11.69-2.65l1,4.9C219.81,71.28,215.93,72.15,212.12,73.09Zm128.2-3.59c-3.73-1-7.57-1.84-11.4-2.58l.93-4.91c3.95.76,7.89,1.65,11.74,2.65ZM235.23,68.28l-.84-4.93c3.92-.67,7.9-1.28,11.84-1.81l.67,5C243,67,239.09,67.62,235.23,68.28Zm23.4-3.15-.5-5c3.95-.39,8-.71,11.95-1l.31,5C266.47,64.42,262.52,64.74,258.63,65.13Zm58.73,0c-3.81-.48-7.74-.86-11.66-1.12l.33-5c4,.26,8.05.65,12,1.14Zm-35.18-1.45-.14-5c3.15-.08,6.39-.14,9.5-.13l2.5,0-.06,5c-.83,0-1.64,0-2.5,0C288.4,63.51,285.27,63.56,282.18,63.64Z"/><path class="cls-1" d="M1001.41,67,997,64.6c1.82-3.32,2.76-5.19,2.77-5.21l4.47,2.24C1004.23,61.71,1003.29,63.59,1001.41,67Z"/></g></g></svg>