<svg xmlns="http://www.w3.org/2000/svg" viewBox="0 0 421.8 139.26"><defs><style>.cls-1{fill:#2a5c68;}</style></defs><title>Asset 3</title><g id="Layer_2" data-name="Layer 2"><g id="Layer_1-2" data-name="Layer 1"><path class="cls-1" d="M31,79a1.46,1.46,0,0,0-1.23-.45,16.12,16.12,0,0,0-6,5.08A61.1,61.1,0,0,0,18.2,91.9q-2.5,4.45-6.14,11.51-2.67,5.49-4.25,8.09a2.29,2.29,0,0,1-.92,1.06,2.43,2.43,0,0,1-1.27.59,7.7,7.7,0,0,1-3.7-1A3.53,3.53,0,0,1,0,109.1,93.38,93.38,0,0,0,6.44,83,7.58,7.58,0,0,1,4,80.42a13.58,13.58,0,0,1-1.44-3.19,2.91,2.91,0,0,1,2-2.43,9.08,9.08,0,0,1,4.08-.93c2,0,3.45.75,4.18,2.23s1.09,3.83,1.09,7a39.28,39.28,0,0,1-1.23,7.74,48.37,48.37,0,0,1,4.11-7.26,35.31,35.31,0,0,1,6.65-7.41,12.55,12.55,0,0,1,8.16-3.29,6.5,6.5,0,0,1,4.07,1.14,6.39,6.39,0,0,1,2.13,2.77A30.38,30.38,0,0,1,39,81.28c-.41.41-1.16,2.18-2.23,5.31a105.51,105.51,0,0,0-2.91,10.24,41.55,41.55,0,0,0-1.3,9.12,8.85,8.85,0,0,0,.41,3,5.61,5.61,0,0,1-2.2,2.91,6.07,6.07,0,0,1-3.42,1,2.6,2.6,0,0,1-2.06-1.09,6.24,6.24,0,0,1-1.23-2.4,50.18,50.18,0,0,1,2.05-11.58q2-7.33,5.28-17.55A2.31,2.31,0,0,0,31,79Z"/><path class="cls-1" d="M42.53,57.05c-.44,1.12-.75,1.88-.93,2.29A48,48,0,0,0,39.55,65c0,.14-.14.52-.28,1.13a2.73,2.73,0,0,1-1,1.58,3.61,3.61,0,0,1-2.33.65Q34,68.32,34,64.21A30.88,30.88,0,0,1,34.68,59a31.15,31.15,0,0,1,1.92-6.41c.82-1.89,1.8-2.84,2.95-2.84a5.25,5.25,0,0,1,2.87.86,2.83,2.83,0,0,1,1.51,2.09,1.33,1.33,0,0,1-.14.58,3.08,3.08,0,0,0-.2.58A32.14,32.14,0,0,1,42.53,57.05Z"/><path class="cls-1" d="M39.89,89.43a12.33,12.33,0,0,1,3.46-8.57A22.66,22.66,0,0,1,52.84,75a40.67,40.67,0,0,1,13.44-2.1,14.77,14.77,0,0,1,7.29,1.85,14.43,14.43,0,0,1,5.28,4.94,12.12,12.12,0,0,1,2,6.58,29.69,29.69,0,0,1-2.64,11.58,29.49,29.49,0,0,1-7.3,10.39,15.33,15.33,0,0,1-10.56,4.21,11.74,11.74,0,0,1-6.75-1.85,11.1,11.1,0,0,1-4-4.87,16,16,0,0,1-1.3-6.44,17.29,17.29,0,0,1,1.37-6.75,12.93,12.93,0,0,1,4-5.31,9.91,9.91,0,0,1,6.27-2.06,5.08,5.08,0,0,1,2.06.55,6.6,6.6,0,0,1,2,1.44A2.74,2.74,0,0,1,64.77,89a3.16,3.16,0,0,1-1,2.09,7.51,7.51,0,0,1-2.43,1.75,6.87,6.87,0,0,1-2.92.68c-.64,0-1.29.6-2,1.79a7.61,7.61,0,0,0-1,3.77,10.19,10.19,0,0,0,1.16,4.69c.78,1.53,1.69,2.3,2.74,2.3a9.08,9.08,0,0,0,7.44-3.84,26.82,26.82,0,0,0,4.45-8.57,26.65,26.65,0,0,0,1.48-6.92,10.67,10.67,0,0,0-1.48-5.42c-1-1.68-2.91-2.53-5.79-2.53a26.09,26.09,0,0,0-9.22,1.61,17.49,17.49,0,0,0-7.12,4.83,14.54,14.54,0,0,0-3.47,7.88Q39.89,93.13,39.89,89.43Z"/><path class="cls-1" d="M92.08,105.57a90.31,90.31,0,0,1-6.24-15.73q-2.57-8.62-2.57-10.55A5.07,5.07,0,0,1,84.5,76.2c.83-1,1.56-1.57,2.2-1.57.36,0,.61.23.75.68q2.33,8.58,5.62,17.79c2.2,6.14,4.27,10,6.24,11.62A90,90,0,0,0,102,95.26q1.88-7.68,2.36-10.83a11.9,11.9,0,0,1-2.36-3,6.92,6.92,0,0,1-1-3.4,5.1,5.1,0,0,1,.93-3.15A3.67,3.67,0,0,1,105,73.67a8.61,8.61,0,0,1,5.72,1.75A5.65,5.65,0,0,1,112.81,80q0,3.7-3.29,16c-1,3.57-1.8,6.43-2.53,8.6a19.38,19.38,0,0,1-2.92,5.62,5.62,5.62,0,0,1-4.42,2.44Q95.75,112.67,92.08,105.57Z"/><path class="cls-1" d="M124.91,74.32a2.36,2.36,0,0,1,2-.79,10.88,10.88,0,0,1,3.29.58c1.19.39,1.78.84,1.78,1.34l-2.81,10.49q-4.17,16-4.59,17.82a5.44,5.44,0,0,0-.14,1.3c0,.46.07.74.21.86a.76.76,0,0,0,.48.17,3.08,3.08,0,0,0,1.92-.89,6.51,6.51,0,0,0,1.57-2,4.17,4.17,0,0,1,2.47,1.71,5,5,0,0,1,.62,2.47q0,2.4-2.95,3.87a14.82,14.82,0,0,1-6.71,1.48,4.69,4.69,0,0,1-3.67-2,7.11,7.11,0,0,1-1.61-4.69q0-1.78,5.48-22.83l1.71-6.71A5.44,5.44,0,0,1,124.91,74.32Z"/><path class="cls-1" d="M167.64,79a1.46,1.46,0,0,0-1.23-.45,16.12,16.12,0,0,0-6,5.08,63,63,0,0,0-5.55,8.29q-2.51,4.45-6.14,11.51-2.67,5.49-4.24,8.09a2.38,2.38,0,0,1-.93,1.06,2.43,2.43,0,0,1-1.27.59,7.7,7.7,0,0,1-3.7-1,3.53,3.53,0,0,1-1.92-3.09A93.38,93.38,0,0,0,143.1,83a7.67,7.67,0,0,1-2.46-2.57,14.44,14.44,0,0,1-1.44-3.19,2.91,2.91,0,0,1,2-2.43,9.12,9.12,0,0,1,4.08-.93c2.06,0,3.45.75,4.18,2.23s1.1,3.83,1.1,7a38.73,38.73,0,0,1-1.24,7.74,48.53,48.53,0,0,1,4.12-7.26A35,35,0,0,1,160,76.2a12.57,12.57,0,0,1,8.16-3.29,6.53,6.53,0,0,1,4.08,1.14,6.37,6.37,0,0,1,2.12,2.77,29.18,29.18,0,0,1,1.27,4.46q-.61.61-2.23,5.31t-2.91,10.24a41.55,41.55,0,0,0-1.3,9.12,8.85,8.85,0,0,0,.41,3,5.64,5.64,0,0,1-2.19,2.91,6.12,6.12,0,0,1-3.43,1,2.61,2.61,0,0,1-2.06-1.09,6.38,6.38,0,0,1-1.23-2.4,50.18,50.18,0,0,1,2.05-11.58q2-7.33,5.28-17.55A2.23,2.23,0,0,0,167.64,79Z"/><path class="cls-1" d="M178.06,65.24a2,2,0,0,1-1.3,1.47,6.25,6.25,0,0,1-2.4.45,4.08,4.08,0,0,1-2.33-.79,32.74,32.74,0,0,1-3.16-2.57A32.75,32.75,0,0,0,164,60a9.28,9.28,0,0,0-4.9-1.3,13.72,13.72,0,0,0-4.49.79c-1.53.52-2.29,1.26-2.29,2.22,0,.73.55,1.36,1.64,1.89a14.83,14.83,0,0,0,3.81,1.16,21.83,21.83,0,0,0,3.59.38l3.3-.07c.59,0,1.34-.07,2.26-.07s1.5.28,1.5.83A2.56,2.56,0,0,1,167.13,68a9.75,9.75,0,0,1-3,1.37,11.7,11.7,0,0,1-3.05.48,34.25,34.25,0,0,1-7.78-.89,17.92,17.92,0,0,1-6.24-2.6,5,5,0,0,1-2.43-4.12,6,6,0,0,1,2.5-4.66,18,18,0,0,1,6-3.18,20.68,20.68,0,0,1,6.27-1.14,17.27,17.27,0,0,1,7.47,1.48,19.35,19.35,0,0,1,6,4.83,14.22,14.22,0,0,0,1.16,1.17l2.13-11.11c0-.45.5-.85,1.37-1.2a6.64,6.64,0,0,1,2.4-.51,3.11,3.11,0,0,1,2.12.72,8.22,8.22,0,0,1,1.72,2.57Z"/><path class="cls-1" d="M187.19,32.12c-.44,1.12-.74,1.88-.93,2.29a49.17,49.17,0,0,0-2,5.62c-.05.14-.14.52-.28,1.13a2.72,2.72,0,0,1-1,1.58,3.71,3.71,0,0,1-2.33.65q-1.92,0-1.92-4.11a31.68,31.68,0,0,1,.68-5.21,31,31,0,0,1,1.92-6.41c.82-1.89,1.81-2.84,3-2.84a5.38,5.38,0,0,1,2.88.85,2.87,2.87,0,0,1,1.5,2.09,1.47,1.47,0,0,1-.13.59,4.12,4.12,0,0,0-.21.58A33,33,0,0,1,187.19,32.12Z"/><path class="cls-1" d="M205.68,86.21l2.26-9.11a6.29,6.29,0,0,1,1.58-2.88,3.16,3.16,0,0,1,2.19-1.1,5.67,5.67,0,0,1,3,.75,2.86,2.86,0,0,1,1.34,2.27q-.28,1.1-2.81,11.37t-3.64,14.19a12,12,0,0,1-3.32,5.48,18,18,0,0,1-6.2,3.91,21.75,21.75,0,0,1-7.95,1.44,17.69,17.69,0,0,1-7.82-1.61,12.11,12.11,0,0,1-5-4.32,10.66,10.66,0,0,1-1.75-5.93,8.88,8.88,0,0,1,2.74-6.37,19.54,19.54,0,0,1,8-4.53,12.6,12.6,0,0,1-4.15-3.18,6.74,6.74,0,0,1-1.81-4.49,9.68,9.68,0,0,1,2.33-6.55,7.45,7.45,0,0,1,5.89-2.7,9.3,9.3,0,0,1,4.11.92q1.92.93,1.92,2.43a2.28,2.28,0,0,1-1,1.82,20,20,0,0,1-2.91,1.82,27.67,27.67,0,0,0-2.47,1.57,1.72,1.72,0,0,0-.82,1.37,2.84,2.84,0,0,0,1,2.23,15,15,0,0,0,2.94,1.89,18.32,18.32,0,0,1,2.51,1.57,2.06,2.06,0,0,1,.85,1.65,1.41,1.41,0,0,1-.75,1.13c-.5.34-1.4.86-2.67,1.54a30.57,30.57,0,0,0-5.63,3.74,5.89,5.89,0,0,0-2.05,4.62,4.82,4.82,0,0,0,2.05,4,9.32,9.32,0,0,0,5.76,1.57,9.7,9.7,0,0,0,5.52-1.78,8.41,8.41,0,0,0,3.46-5.28Z"/><path class="cls-1" d="M246.29,96.77a30.51,30.51,0,0,1-6,11.2,12.39,12.39,0,0,1-9.76,4.7,9.08,9.08,0,0,1-5.56-1.55A4.9,4.9,0,0,1,223,107a4.38,4.38,0,0,1,1.47-3.39,5.41,5.41,0,0,1,3.6-1.41c0,1.92.39,3.19,1,3.8a3.31,3.31,0,0,0,2.4.93q1.85,0,4.08-3.87a43.36,43.36,0,0,0,3.8-9.12,31.68,31.68,0,0,0,1.58-8.81,7,7,0,0,0-1.44-4.48c-1-1.22-2.88-1.82-5.76-1.82a9.06,9.06,0,0,0-6.48,2.43,9.59,9.59,0,0,0-2.84,6.62,6.93,6.93,0,0,1-4.32-1.27,3.69,3.69,0,0,1-1.64-3,8.38,8.38,0,0,1,2-5.52,13.09,13.09,0,0,1,5.75-3.8,24.56,24.56,0,0,1,8.54-1.38q6.64,0,10.07,3.43A11.71,11.71,0,0,1,248.24,85,41.48,41.48,0,0,1,246.29,96.77Z"/><path class="cls-1" d="M278.94,86.21l2.27-9.11a6.28,6.28,0,0,1,1.57-2.88,3.16,3.16,0,0,1,2.2-1.1,5.67,5.67,0,0,1,3,.75,2.85,2.85,0,0,1,1.33,2.27q-.27,1.1-2.81,11.37t-3.63,14.19a12.2,12.2,0,0,1-3.32,5.48,17.94,17.94,0,0,1-6.21,3.91,21.68,21.68,0,0,1-7.95,1.44,17.64,17.64,0,0,1-7.81-1.61,12.2,12.2,0,0,1-5-4.32,10.74,10.74,0,0,1-1.75-5.93,8.89,8.89,0,0,1,2.75-6.37,19.4,19.4,0,0,1,8-4.53,12.5,12.5,0,0,1-4.15-3.18,6.75,6.75,0,0,1-1.82-4.49,9.73,9.73,0,0,1,2.33-6.55,7.47,7.47,0,0,1,5.9-2.7,9.3,9.3,0,0,1,4.11.92q1.92.93,1.92,2.43a2.27,2.27,0,0,1-1,1.82,20,20,0,0,1-2.91,1.82,27.21,27.21,0,0,0-2.46,1.57,1.74,1.74,0,0,0-.83,1.37,2.84,2.84,0,0,0,1,2.23,14.85,14.85,0,0,0,3,1.89,17.51,17.51,0,0,1,2.5,1.57,2.07,2.07,0,0,1,.86,1.65,1.41,1.41,0,0,1-.76,1.13c-.5.34-1.39.86-2.67,1.54a30.11,30.11,0,0,0-5.62,3.74,5.9,5.9,0,0,0-2.06,4.62,4.83,4.83,0,0,0,2.06,4,9.28,9.28,0,0,0,5.76,1.57,9.7,9.7,0,0,0,5.52-1.78,8.45,8.45,0,0,0,3.46-5.28Z"/><path class="cls-1" d="M268.11,129.39a29.26,29.26,0,0,0,1.17-5.28,6.8,6.8,0,0,1-1.95-1.88,8.45,8.45,0,0,1-1.27-2.57,2.86,2.86,0,0,1,1.71-2.26,6.61,6.61,0,0,1,3.36-1,5.28,5.28,0,0,1,3.91,1.37,5.37,5.37,0,0,1,1.37,4,28.72,28.72,0,0,1-4.66,14.46q-2.13,3-4.6,3a2.42,2.42,0,0,1-1.43-.58,2.07,2.07,0,0,1-.76-1.75v-1a1.75,1.75,0,0,1,.45-.93,5.58,5.58,0,0,0,.58-.85A28.27,28.27,0,0,0,268.11,129.39Z"/><path class="cls-1" d="M301,64.86a22.25,22.25,0,0,0-5.27-3.94,26.15,26.15,0,0,1-2.44-1.58,1.54,1.54,0,0,1-.72-1.23,3.85,3.85,0,0,1,1.54-3,17.83,17.83,0,0,1,4-2.36,67.6,67.6,0,0,1,8.64-2.54,44.9,44.9,0,0,1,10.14-1.58,8.48,8.48,0,0,1,4,.83,2.45,2.45,0,0,1,1.5,2.19,1.8,1.8,0,0,1-.61,1.51,5.46,5.46,0,0,1-1.92.82,45.42,45.42,0,0,1-5.21.89q-4.73.69-7.64,1.3A19.17,19.17,0,0,0,302,57.91a22.85,22.85,0,0,1,5.69,4.66A12,12,0,0,1,310.13,67a17.52,17.52,0,0,1,.55,4.46l-1.85,7q-5.76,21.8-6.52,25.36a5.49,5.49,0,0,0-.13,1.3,1.24,1.24,0,0,0,.2.86.76.76,0,0,0,.48.17,3,3,0,0,0,1.92-.89,6.55,6.55,0,0,0,1.58-2,4.23,4.23,0,0,1,2.47,1.71,5,5,0,0,1,.61,2.47q0,2.4-2.94,3.87a14.89,14.89,0,0,1-6.72,1.48,4.71,4.71,0,0,1-3.67-2,7.16,7.16,0,0,1-1.61-4.69q0-1.65,7.13-30.16L303,70.45A7.77,7.77,0,0,0,301,64.86Z"/><path class="cls-1" d="M324.62,104.37a14.4,14.4,0,0,0,1.79-4.49A20.55,20.55,0,0,0,327,95.6a8.31,8.31,0,0,0-2-5.72,26.22,26.22,0,0,0-5.24-4.42,19.18,19.18,0,0,1-2.36-1.68,1.85,1.85,0,0,1-.72-1.34,3.82,3.82,0,0,1,1.54-3,17.61,17.61,0,0,1,4-2.36,74.57,74.57,0,0,1,7.88-2.54,34.29,34.29,0,0,1,8.91-1.44,8.54,8.54,0,0,1,4,.82,2.46,2.46,0,0,1,1.51,2.2,1.77,1.77,0,0,1-.61,1.5,5.43,5.43,0,0,1-1.92.83l-1.65.41q-4,.89-7.16,1.85a31.89,31.89,0,0,0-6,2.47,18.37,18.37,0,0,1,5.76,6.1,13.54,13.54,0,0,1,1.78,6.51,18,18,0,0,1-1.75,7.19,19.23,19.23,0,0,1-4.93,6.79,10.83,10.83,0,0,1-7.37,2.81,7.53,7.53,0,0,1-5-1.85,6.74,6.74,0,0,1-2.16-5.42,5.9,5.9,0,0,1,1.41-4.14,4.42,4.42,0,0,1,3.39-1.54,4.19,4.19,0,0,1,2.44.68,1.93,1.93,0,0,1,1,1.58,2.31,2.31,0,0,0-.48.41,3.8,3.8,0,0,0-.65.89,2.44,2.44,0,0,0-.31,1.23,2.21,2.21,0,0,0,.41,1.41,1.16,1.16,0,0,0,.89.51A3.48,3.48,0,0,0,324.62,104.37Z"/><path class="cls-1" d="M345.22,105.33a65.76,65.76,0,0,0,3.73-9A67.62,67.62,0,0,0,351.52,83a8,8,0,0,1-2.5-2.57,13.73,13.73,0,0,1-1.47-3.19,2.93,2.93,0,0,1,1.95-2.43,9.12,9.12,0,0,1,4.08-.93c2.1,0,3.58.7,4.42,2.09s1.27,3.63,1.27,6.69a34.72,34.72,0,0,1-1,7.06,81,81,0,0,1-2.6,9.11,29.85,29.85,0,0,1-3.29,7,32.71,32.71,0,0,1,9.87-1.3l3.15.07c1.37.09,2.47.14,3.29.14a1.09,1.09,0,0,0,.86-.55,3.32,3.32,0,0,0,.51-1.24q.75-4.65,3-12.88t4.69-15.52q2.5-7.31,4.22-9.77c1.14-1.65,2.28-2.47,3.42-2.47a5.79,5.79,0,0,1,2.78.65,2.76,2.76,0,0,1,1.47,1.89,42.89,42.89,0,0,0-5,11.17q-2.16,7-4.62,17.41-.35,1.44-1.37,5.51t-1.85,6.69a14.47,14.47,0,0,1-2.06,4.62,4.07,4.07,0,0,1-3.43,1.41,17,17,0,0,1-2.77-.21c-.85-.13-1.39-.23-1.61-.27a20.7,20.7,0,0,0-10.63.14,33.19,33.19,0,0,1-6,.82,8.48,8.48,0,0,1-4.59-1,3.3,3.3,0,0,1-1.44-3A7,7,0,0,1,345.22,105.33Z"/><g id="Layer_1-3" data-name="Layer 1"><path class="cls-1" d="M383.76,7.75l-14.8,4L359.9,2.73A9.34,9.34,0,1,0,346.69,16L355.74,25l-4,14.8a8,8,0,0,0,14.73,6l3.6-6.49,1.59,1.58-.33,3a8,8,0,0,0,15.56,3.42,9.89,9.89,0,0,1,1.84-2.54,10.06,10.06,0,0,1,2.53-1.84,8,8,0,0,0-3.42-15.56l-3,.33-1.58-1.58,6.5-3.61a8,8,0,0,0-6-14.73Zm4.58,6.72a2.66,2.66,0,0,1-1.17,3.34l-12.69,7.05,8.4,8.41,5.53-.62a2.67,2.67,0,0,1,1.14,5.19,14.75,14.75,0,0,0-7.76,7.75,2.67,2.67,0,0,1-5.18-1.14l.61-5.52-8.4-8.4-7.05,12.68a2.67,2.67,0,0,1-4.91-2l4.85-17.79L350.46,12.17a4,4,0,1,1,5.67-5.66l11.24,11.25,17.8-4.86A2.67,2.67,0,0,1,388.34,14.47Z"/><circle class="cls-1" cx="352.82" cy="8.87" r="1.34"/></g><path class="cls-1" d="M390,107.09a1.53,1.53,0,0,1-1.34-.83,1.5,1.5,0,0,1,.67-2c1.82-.92,3.59-1.86,5.25-2.78a1.5,1.5,0,1,1,1.46,2.62c-1.7,1-3.51,1.9-5.36,2.84A1.65,1.65,0,0,1,390,107.09Z"/><path class="cls-1" d="M404,99a1.51,1.51,0,0,1-1.24-.65,1.49,1.49,0,0,1,.39-2.08A62,62,0,0,0,410.85,90a1.5,1.5,0,0,1,2.08,2.17,66.44,66.44,0,0,1-8.13,6.51A1.49,1.49,0,0,1,404,99Zm14.2-14.32a1.46,1.46,0,0,1-.7-.18,1.5,1.5,0,0,1-.63-2,16,16,0,0,0,2-7.44,12.75,12.75,0,0,0-.09-1.51,1.5,1.5,0,0,1,3-.33c.06.61.1,1.23.1,1.84a18.86,18.86,0,0,1-2.32,8.84A1.5,1.5,0,0,1,418.15,84.63ZM416.38,65.5a1.5,1.5,0,0,1-1.22-.63,38.89,38.89,0,0,0-6.74-7.08,1.5,1.5,0,0,1,1.93-2.3,42.52,42.52,0,0,1,7.25,7.64,1.49,1.49,0,0,1-.35,2.09A1.46,1.46,0,0,1,416.38,65.5Z"/><path class="cls-1" d="M401.12,52.16a1.49,1.49,0,0,1-.81-.23c-1.58-1-3.29-2-5.08-3a1.5,1.5,0,1,1,1.47-2.61c1.83,1,3.59,2.08,5.22,3.12a1.5,1.5,0,0,1-.8,2.76Z"/></g></g></svg>