<svg xmlns="http://www.w3.org/2000/svg" viewBox="0 0 58.99 58.97"><defs><style>.cls-1{fill:#abd6d6;fill-rule:evenodd;}</style></defs><title>Asset 6</title><g id="Layer_2" data-name="Layer 2"><g id="Layer_1-2" data-name="Layer 1"><path class="cls-1" d="M25.55,59a1.69,1.69,0,0,0-2.19,0,5.76,5.76,0,0,1-.16-.9q0-6.94,0-13.88a5.72,5.72,0,0,1,.11-.81c.76.31,1.48.6,2.15-.08A146,146,0,0,1,25.55,59Z"/><path class="cls-1" d="M23.38,10.06a1.62,1.62,0,0,0,2,.07l.15.08s.06,0,.06.08q0,7.14.07,14.29c0,.32,0,.64,0,1-.78-.05-1.54-.78-2.2.15C23.13,24.84,23.08,11.33,23.38,10.06Z"/><path class="cls-1" d="M15.55,33.35a3.3,3.3,0,0,0,0,2.39H0a2,2,0,0,0,0-2.27C.79,33.18,14,33.09,15.55,33.35Z"/><path class="cls-1" d="M48.88,33.39a1.66,1.66,0,0,0,0,2.15,3,3,0,0,1-.66.19q-7.2,0-14.41,0a3.2,3.2,0,0,1-.53-.09,1.94,1.94,0,0,0,0-2.2A153.43,153.43,0,0,1,48.88,33.39Z"/><path class="cls-1" d="M18,2.92v2c-.67.2-13.76.27-15.31.05a2.1,2.1,0,0,0-.06-2C3.54,2.73,17.12,2.71,18,2.92Z"/><path class="cls-1" d="M54,41h2c.21.72.23,14.29,0,15.36a1.79,1.79,0,0,0-1.9,0A148.48,148.48,0,0,1,54,41Z"/><path class="cls-1" d="M30.67,5a1.63,1.63,0,0,0-.17-2.1H46.24a4,4,0,0,0-.3,1,2.79,2.79,0,0,0,.24.88c0,.09,0,.13,0,.15A.18.18,0,0,1,46,5a2.14,2.14,0,0,1-.43.07H31.27A4.43,4.43,0,0,1,30.67,5Z"/><path class="cls-1" d="M56,28.3a1.65,1.65,0,0,0-2,0,4,4,0,0,1-.18-.78q0-7,0-14a3.5,3.5,0,0,1,.09-.6H56a.93.93,0,0,1,.12.4c0,4.85,0,9.71,0,14.56A2.36,2.36,0,0,1,56,28.3Z"/><path class="cls-1" d="M23.13,33.17c0-.91.07-1.7.11-2.63a3.67,3.67,0,0,0,1.14.39,4.81,4.81,0,0,0,1.26-.43c0,.9.08,1.71.13,2.65l2.67.14c-.37.8-.65,1.51.11,2.36l-2.85.17v2.66c-.85-.3-1.57-.61-2.42.11-.06-1-.11-1.82-.16-2.75l-2.68-.19a2.06,2.06,0,0,0-.05-2.36Z"/><path class="cls-1" d="M56.13,0V2.77h2.69c-.17.78-.57,1.44.17,2.22l-2.84.19V7.61H53.91c0-.68-.09-1.49-.14-2.42L51.32,5V2.82h2.43c.06-.95.1-1.78.16-2.71A2,2,0,0,0,56.13,0Z"/><path class="cls-1" d="M23,5a1.69,1.69,0,0,0,0-2.05c.66-.46,1,.23,1.42.15a9.94,9.94,0,0,0,1.49-.5c-.34,1-.53,1.72-.07,2.41-.63.5-1-.24-1.48-.16S23.58,5.45,23,5Z"/><path class="cls-1" d="M56.3,35.77c-.31,0-.43.12-.51.08a1.34,1.34,0,0,0-1.52-.06c-.3.2-.68-.12-.5-.38a1.86,1.86,0,0,0,0-1.93c0-.07.08-.19.16-.38A2.54,2.54,0,0,0,56.34,33a5.85,5.85,0,0,0-.48,1.51A4.38,4.38,0,0,0,56.3,35.77Z"/></g></g></svg>